G04 #@! TF.GenerationSoftware,KiCad,Pcbnew,(5.1.2)-2*
G04 #@! TF.CreationDate,2021-02-16T01:53:11-08:00*
G04 #@! TF.ProjectId,FiveStageStereoEQ,46697665-5374-4616-9765-53746572656f,v01*
G04 #@! TF.SameCoordinates,Original*
G04 #@! TF.FileFunction,Legend,Bot*
G04 #@! TF.FilePolarity,Positive*
%FSLAX46Y46*%
G04 Gerber Fmt 4.6, Leading zero omitted, Abs format (unit mm)*
G04 Created by KiCad (PCBNEW (5.1.2)-2) date 2021-02-16 01:53:11*
%MOMM*%
%LPD*%
G04 APERTURE LIST*
%ADD10C,0.002540*%
%ADD11C,0.012700*%
%ADD12C,0.120000*%
%ADD13C,0.025400*%
G04 APERTURE END LIST*
D10*
G36*
X119166640Y-93644720D02*
G01*
X119451120Y-93850460D01*
X119331740Y-93964760D01*
X119105680Y-94155260D01*
X118910100Y-94269560D01*
X118526560Y-93743780D01*
X118638320Y-93682820D01*
X118775480Y-93581220D01*
X118884700Y-93449140D01*
X119166640Y-93644720D01*
G37*
X119166640Y-93644720D02*
X119451120Y-93850460D01*
X119331740Y-93964760D01*
X119105680Y-94155260D01*
X118910100Y-94269560D01*
X118526560Y-93743780D01*
X118638320Y-93682820D01*
X118775480Y-93581220D01*
X118884700Y-93449140D01*
X119166640Y-93644720D01*
G36*
X118262400Y-89997280D02*
G01*
X118684040Y-90088720D01*
X119128540Y-90307160D01*
X119372380Y-90484960D01*
X119593360Y-90733880D01*
X119700040Y-90901520D01*
X119811800Y-91168220D01*
X119908320Y-91462860D01*
X119959120Y-91742260D01*
X119992140Y-91988640D01*
X119989600Y-92557600D01*
X119966740Y-92788740D01*
X119849900Y-93220540D01*
X119669560Y-93581220D01*
X119446040Y-93850460D01*
X118884700Y-93449140D01*
X119054880Y-93220540D01*
X119204740Y-92778580D01*
X119242840Y-92425520D01*
X119255540Y-92125800D01*
X119192040Y-91627960D01*
X119192887Y-91630500D01*
X119174260Y-91546680D01*
X119080280Y-91277440D01*
X118945660Y-91056460D01*
X118729760Y-90817700D01*
X118427500Y-90647520D01*
X118064280Y-90573860D01*
X117734080Y-90599260D01*
X117449600Y-90703400D01*
X117157500Y-90921840D01*
X116997480Y-91114880D01*
X116916200Y-91267280D01*
X116804440Y-91564460D01*
X116776500Y-91770200D01*
X116743480Y-91998800D01*
X116751100Y-92397580D01*
X116763800Y-92745560D01*
X116847620Y-93045280D01*
X117012720Y-93337380D01*
X117116860Y-93492320D01*
X117327680Y-93662500D01*
X117492780Y-93759020D01*
X117596920Y-93802200D01*
X117876320Y-93865700D01*
X118051580Y-93875860D01*
X118343680Y-93827600D01*
X118526560Y-93743780D01*
X118907560Y-94269560D01*
X118653560Y-94368620D01*
X118379240Y-94437200D01*
X118084600Y-94467680D01*
X117754400Y-94460060D01*
X117523260Y-94424500D01*
X117195600Y-94315280D01*
X116900960Y-94170500D01*
X116575840Y-93908880D01*
X116352320Y-93634560D01*
X116184680Y-93314520D01*
X116065300Y-92941140D01*
X116009420Y-92262960D01*
X116029740Y-91805760D01*
X116062760Y-91567000D01*
X116128800Y-91285060D01*
X116184680Y-91140280D01*
X116250720Y-91000580D01*
X116352320Y-90815160D01*
X116550440Y-90558620D01*
X116832380Y-90319860D01*
X117099080Y-90159840D01*
X117464840Y-90037920D01*
X117779800Y-89987120D01*
X118262400Y-89997280D01*
G37*
X118262400Y-89997280D02*
X118684040Y-90088720D01*
X119128540Y-90307160D01*
X119372380Y-90484960D01*
X119593360Y-90733880D01*
X119700040Y-90901520D01*
X119811800Y-91168220D01*
X119908320Y-91462860D01*
X119959120Y-91742260D01*
X119992140Y-91988640D01*
X119989600Y-92557600D01*
X119966740Y-92788740D01*
X119849900Y-93220540D01*
X119669560Y-93581220D01*
X119446040Y-93850460D01*
X118884700Y-93449140D01*
X119054880Y-93220540D01*
X119204740Y-92778580D01*
X119242840Y-92425520D01*
X119255540Y-92125800D01*
X119192040Y-91627960D01*
X119192887Y-91630500D01*
X119174260Y-91546680D01*
X119080280Y-91277440D01*
X118945660Y-91056460D01*
X118729760Y-90817700D01*
X118427500Y-90647520D01*
X118064280Y-90573860D01*
X117734080Y-90599260D01*
X117449600Y-90703400D01*
X117157500Y-90921840D01*
X116997480Y-91114880D01*
X116916200Y-91267280D01*
X116804440Y-91564460D01*
X116776500Y-91770200D01*
X116743480Y-91998800D01*
X116751100Y-92397580D01*
X116763800Y-92745560D01*
X116847620Y-93045280D01*
X117012720Y-93337380D01*
X117116860Y-93492320D01*
X117327680Y-93662500D01*
X117492780Y-93759020D01*
X117596920Y-93802200D01*
X117876320Y-93865700D01*
X118051580Y-93875860D01*
X118343680Y-93827600D01*
X118526560Y-93743780D01*
X118907560Y-94269560D01*
X118653560Y-94368620D01*
X118379240Y-94437200D01*
X118084600Y-94467680D01*
X117754400Y-94460060D01*
X117523260Y-94424500D01*
X117195600Y-94315280D01*
X116900960Y-94170500D01*
X116575840Y-93908880D01*
X116352320Y-93634560D01*
X116184680Y-93314520D01*
X116065300Y-92941140D01*
X116009420Y-92262960D01*
X116029740Y-91805760D01*
X116062760Y-91567000D01*
X116128800Y-91285060D01*
X116184680Y-91140280D01*
X116250720Y-91000580D01*
X116352320Y-90815160D01*
X116550440Y-90558620D01*
X116832380Y-90319860D01*
X117099080Y-90159840D01*
X117464840Y-90037920D01*
X117779800Y-89987120D01*
X118262400Y-89997280D01*
G36*
X115407440Y-90129360D02*
G01*
X115402360Y-94416880D01*
X114663220Y-94424500D01*
X114663220Y-90126820D01*
X115407440Y-90129360D01*
G37*
X115407440Y-90129360D02*
X115402360Y-94416880D01*
X114663220Y-94424500D01*
X114663220Y-90126820D01*
X115407440Y-90129360D01*
D11*
G36*
X114660680Y-95227166D02*
G01*
X115407440Y-95234760D01*
X115394740Y-96024700D01*
X114665760Y-96022160D01*
X114660680Y-95227166D01*
X114658140Y-95227140D01*
X114660680Y-95227140D01*
X114660680Y-95227166D01*
G37*
X114660680Y-95227166D02*
X115407440Y-95234760D01*
X115394740Y-96024700D01*
X114665760Y-96022160D01*
X114660680Y-95227166D01*
X114658140Y-95227140D01*
X114660680Y-95227140D01*
X114660680Y-95227166D01*
G36*
X112580420Y-90096340D02*
G01*
X112814100Y-90195400D01*
X113047780Y-90352880D01*
X113205260Y-90495120D01*
X113357660Y-90637360D01*
X113360200Y-90416380D01*
X113362740Y-90124280D01*
X114010440Y-90131900D01*
X114007900Y-90449400D01*
X114010436Y-92501077D01*
X114015520Y-92501720D01*
X114012980Y-93184980D01*
X114000280Y-96022160D01*
X114002820Y-96024700D01*
X113311940Y-96022160D01*
X113306860Y-95755460D01*
X113304320Y-93977460D01*
X113167160Y-94086680D01*
X112897920Y-94284800D01*
X112555020Y-94442280D01*
X112255300Y-94500700D01*
X111993680Y-94505780D01*
X111742220Y-94477840D01*
X111495840Y-94406720D01*
X111358680Y-94350840D01*
X111097060Y-94190820D01*
X110904020Y-94025720D01*
X110670340Y-93738700D01*
X110538260Y-93492320D01*
X110408720Y-93121480D01*
X110319820Y-92616020D01*
X110319068Y-92595700D01*
X111060230Y-92595700D01*
X111097060Y-92925900D01*
X111196120Y-93248480D01*
X111386620Y-93553280D01*
X111508540Y-93680280D01*
X111649510Y-93788230D01*
X111880650Y-93887290D01*
X112100360Y-93924120D01*
X112280700Y-93913960D01*
X112494060Y-93870780D01*
X112717580Y-93759020D01*
X112880140Y-93642180D01*
X113023650Y-93496130D01*
X113198910Y-93204030D01*
X113306860Y-92814140D01*
X113339880Y-92499180D01*
X113351706Y-92423496D01*
X113347500Y-92422980D01*
X113347500Y-92044520D01*
X113334800Y-91815920D01*
X113258600Y-91493340D01*
X113197640Y-91323160D01*
X113106200Y-91142820D01*
X112976660Y-90959940D01*
X112702340Y-90749120D01*
X112487710Y-90658950D01*
X112190530Y-90620850D01*
X111955580Y-90655140D01*
X111737140Y-90746580D01*
X111592360Y-90845640D01*
X111399320Y-91031060D01*
X111244380Y-91257120D01*
X111152940Y-91467940D01*
X111102140Y-91643200D01*
X111071660Y-91902280D01*
X111062770Y-92123260D01*
X111060230Y-92595700D01*
X110319068Y-92595700D01*
X110309660Y-92341700D01*
X110312200Y-92064840D01*
X110345220Y-91757500D01*
X110421420Y-91404440D01*
X110543340Y-91064080D01*
X110716060Y-90787220D01*
X110868460Y-90604340D01*
X111036100Y-90444320D01*
X111325660Y-90248740D01*
X111584740Y-90131900D01*
X111932720Y-90043000D01*
X112273080Y-90043000D01*
X112580420Y-90096340D01*
G37*
X112580420Y-90096340D02*
X112814100Y-90195400D01*
X113047780Y-90352880D01*
X113205260Y-90495120D01*
X113357660Y-90637360D01*
X113360200Y-90416380D01*
X113362740Y-90124280D01*
X114010440Y-90131900D01*
X114007900Y-90449400D01*
X114010436Y-92501077D01*
X114015520Y-92501720D01*
X114012980Y-93184980D01*
X114000280Y-96022160D01*
X114002820Y-96024700D01*
X113311940Y-96022160D01*
X113306860Y-95755460D01*
X113304320Y-93977460D01*
X113167160Y-94086680D01*
X112897920Y-94284800D01*
X112555020Y-94442280D01*
X112255300Y-94500700D01*
X111993680Y-94505780D01*
X111742220Y-94477840D01*
X111495840Y-94406720D01*
X111358680Y-94350840D01*
X111097060Y-94190820D01*
X110904020Y-94025720D01*
X110670340Y-93738700D01*
X110538260Y-93492320D01*
X110408720Y-93121480D01*
X110319820Y-92616020D01*
X110319068Y-92595700D01*
X111060230Y-92595700D01*
X111097060Y-92925900D01*
X111196120Y-93248480D01*
X111386620Y-93553280D01*
X111508540Y-93680280D01*
X111649510Y-93788230D01*
X111880650Y-93887290D01*
X112100360Y-93924120D01*
X112280700Y-93913960D01*
X112494060Y-93870780D01*
X112717580Y-93759020D01*
X112880140Y-93642180D01*
X113023650Y-93496130D01*
X113198910Y-93204030D01*
X113306860Y-92814140D01*
X113339880Y-92499180D01*
X113351706Y-92423496D01*
X113347500Y-92422980D01*
X113347500Y-92044520D01*
X113334800Y-91815920D01*
X113258600Y-91493340D01*
X113197640Y-91323160D01*
X113106200Y-91142820D01*
X112976660Y-90959940D01*
X112702340Y-90749120D01*
X112487710Y-90658950D01*
X112190530Y-90620850D01*
X111955580Y-90655140D01*
X111737140Y-90746580D01*
X111592360Y-90845640D01*
X111399320Y-91031060D01*
X111244380Y-91257120D01*
X111152940Y-91467940D01*
X111102140Y-91643200D01*
X111071660Y-91902280D01*
X111062770Y-92123260D01*
X111060230Y-92595700D01*
X110319068Y-92595700D01*
X110309660Y-92341700D01*
X110312200Y-92064840D01*
X110345220Y-91757500D01*
X110421420Y-91404440D01*
X110543340Y-91064080D01*
X110716060Y-90787220D01*
X110868460Y-90604340D01*
X111036100Y-90444320D01*
X111325660Y-90248740D01*
X111584740Y-90131900D01*
X111932720Y-90043000D01*
X112273080Y-90043000D01*
X112580420Y-90096340D01*
G36*
X108054140Y-90035380D02*
G01*
X108407200Y-90068400D01*
X108696760Y-90131900D01*
X109075220Y-90269060D01*
X109430820Y-90464640D01*
X109659420Y-90644980D01*
X109758480Y-90741500D01*
X109761020Y-91094560D01*
X109758480Y-91953080D01*
X109758480Y-94122240D01*
X109062520Y-94127320D01*
X109057440Y-91038680D01*
X108872020Y-90904060D01*
X108600240Y-90805000D01*
X108389420Y-90746580D01*
X108186220Y-90698320D01*
X107985560Y-90678000D01*
X107734100Y-90690700D01*
X107530900Y-90766900D01*
X107375960Y-90868500D01*
X107248960Y-91023440D01*
X107172760Y-91213940D01*
X107149900Y-91404440D01*
X107142280Y-91533980D01*
X107134660Y-91808300D01*
X107106720Y-94117160D01*
X107109260Y-94119700D01*
X106413300Y-94127320D01*
X106403140Y-93769180D01*
X106423460Y-92219780D01*
X106436160Y-91061540D01*
X106489500Y-90939620D01*
X106624120Y-90700860D01*
X106832400Y-90434160D01*
X107061000Y-90258900D01*
X107243880Y-90164920D01*
X107538520Y-90076020D01*
X107868720Y-90032840D01*
X108054140Y-90035380D01*
G37*
X108054140Y-90035380D02*
X108407200Y-90068400D01*
X108696760Y-90131900D01*
X109075220Y-90269060D01*
X109430820Y-90464640D01*
X109659420Y-90644980D01*
X109758480Y-90741500D01*
X109761020Y-91094560D01*
X109758480Y-91953080D01*
X109758480Y-94122240D01*
X109062520Y-94127320D01*
X109057440Y-91038680D01*
X108872020Y-90904060D01*
X108600240Y-90805000D01*
X108389420Y-90746580D01*
X108186220Y-90698320D01*
X107985560Y-90678000D01*
X107734100Y-90690700D01*
X107530900Y-90766900D01*
X107375960Y-90868500D01*
X107248960Y-91023440D01*
X107172760Y-91213940D01*
X107149900Y-91404440D01*
X107142280Y-91533980D01*
X107134660Y-91808300D01*
X107106720Y-94117160D01*
X107109260Y-94119700D01*
X106413300Y-94127320D01*
X106403140Y-93769180D01*
X106423460Y-92219780D01*
X106436160Y-91061540D01*
X106489500Y-90939620D01*
X106624120Y-90700860D01*
X106832400Y-90434160D01*
X107061000Y-90258900D01*
X107243880Y-90164920D01*
X107538520Y-90076020D01*
X107868720Y-90032840D01*
X108054140Y-90035380D01*
G36*
X104503220Y-90037920D02*
G01*
X104780080Y-90083640D01*
X105369360Y-90248740D01*
X105783380Y-90411300D01*
X105778300Y-90690700D01*
X105783380Y-93294200D01*
X105610660Y-93647260D01*
X105496360Y-93860620D01*
X105295700Y-94086680D01*
X105036620Y-94269560D01*
X104767380Y-94371160D01*
X104571800Y-94409260D01*
X104084120Y-94416880D01*
X103659940Y-94386400D01*
X103319580Y-94300040D01*
X103278940Y-94246700D01*
X103375460Y-93731080D01*
X103433880Y-93637100D01*
X103433880Y-93634560D01*
X103677720Y-93654880D01*
X103898700Y-93680280D01*
X104127300Y-93698060D01*
X104284780Y-93700600D01*
X104503220Y-93677740D01*
X104706420Y-93586300D01*
X104884220Y-93431360D01*
X104988360Y-93230700D01*
X105039160Y-93055440D01*
X104998172Y-92863269D01*
X105036620Y-93052900D01*
X105026460Y-93012260D01*
X104968040Y-92997020D01*
X104706420Y-93065600D01*
X104320340Y-93111320D01*
X104010460Y-93101160D01*
X103764080Y-93060520D01*
X103337360Y-92905580D01*
X103022400Y-92702380D01*
X102786180Y-92433140D01*
X102661720Y-92191840D01*
X102600760Y-91983560D01*
X102585520Y-91727020D01*
X102585520Y-91579700D01*
X103291640Y-91579700D01*
X103291640Y-91706700D01*
X103365300Y-91991180D01*
X103438960Y-92135960D01*
X103639620Y-92323920D01*
X103898700Y-92407740D01*
X104320340Y-92428060D01*
X104627680Y-92395040D01*
X104782620Y-92364560D01*
X104886760Y-92313760D01*
X104889450Y-92327029D01*
X105059480Y-92262960D01*
X105056940Y-91584780D01*
X105062020Y-90845640D01*
X104919780Y-90784680D01*
X104663240Y-90726260D01*
X104401620Y-90690700D01*
X104145080Y-90678000D01*
X103888540Y-90713560D01*
X103670100Y-90845640D01*
X103532940Y-90985340D01*
X103426260Y-91132660D01*
X103350060Y-91305380D01*
X103301800Y-91455240D01*
X103291640Y-91579700D01*
X102585520Y-91579700D01*
X102585520Y-91389200D01*
X102623620Y-91178380D01*
X102679500Y-91023440D01*
X102859840Y-90711020D01*
X103090980Y-90446860D01*
X103322120Y-90266520D01*
X103571040Y-90136980D01*
X103825040Y-90058240D01*
X104165400Y-90022680D01*
X104503220Y-90037920D01*
G37*
X104503220Y-90037920D02*
X104780080Y-90083640D01*
X105369360Y-90248740D01*
X105783380Y-90411300D01*
X105778300Y-90690700D01*
X105783380Y-93294200D01*
X105610660Y-93647260D01*
X105496360Y-93860620D01*
X105295700Y-94086680D01*
X105036620Y-94269560D01*
X104767380Y-94371160D01*
X104571800Y-94409260D01*
X104084120Y-94416880D01*
X103659940Y-94386400D01*
X103319580Y-94300040D01*
X103278940Y-94246700D01*
X103375460Y-93731080D01*
X103433880Y-93637100D01*
X103433880Y-93634560D01*
X103677720Y-93654880D01*
X103898700Y-93680280D01*
X104127300Y-93698060D01*
X104284780Y-93700600D01*
X104503220Y-93677740D01*
X104706420Y-93586300D01*
X104884220Y-93431360D01*
X104988360Y-93230700D01*
X105039160Y-93055440D01*
X104998172Y-92863269D01*
X105036620Y-93052900D01*
X105026460Y-93012260D01*
X104968040Y-92997020D01*
X104706420Y-93065600D01*
X104320340Y-93111320D01*
X104010460Y-93101160D01*
X103764080Y-93060520D01*
X103337360Y-92905580D01*
X103022400Y-92702380D01*
X102786180Y-92433140D01*
X102661720Y-92191840D01*
X102600760Y-91983560D01*
X102585520Y-91727020D01*
X102585520Y-91579700D01*
X103291640Y-91579700D01*
X103291640Y-91706700D01*
X103365300Y-91991180D01*
X103438960Y-92135960D01*
X103639620Y-92323920D01*
X103898700Y-92407740D01*
X104320340Y-92428060D01*
X104627680Y-92395040D01*
X104782620Y-92364560D01*
X104886760Y-92313760D01*
X104889450Y-92327029D01*
X105059480Y-92262960D01*
X105056940Y-91584780D01*
X105062020Y-90845640D01*
X104919780Y-90784680D01*
X104663240Y-90726260D01*
X104401620Y-90690700D01*
X104145080Y-90678000D01*
X103888540Y-90713560D01*
X103670100Y-90845640D01*
X103532940Y-90985340D01*
X103426260Y-91132660D01*
X103350060Y-91305380D01*
X103301800Y-91455240D01*
X103291640Y-91579700D01*
X102585520Y-91579700D01*
X102585520Y-91389200D01*
X102623620Y-91178380D01*
X102679500Y-91023440D01*
X102859840Y-90711020D01*
X103090980Y-90446860D01*
X103322120Y-90266520D01*
X103571040Y-90136980D01*
X103825040Y-90058240D01*
X104165400Y-90022680D01*
X104503220Y-90037920D01*
D10*
G36*
X112245140Y-95638620D02*
G01*
X112461040Y-95666560D01*
X112549940Y-95694500D01*
X112572800Y-95724980D01*
X112580420Y-95752920D01*
X112577880Y-95758000D01*
X112557560Y-95879920D01*
X112486440Y-96159320D01*
X112420400Y-96349820D01*
X112064800Y-96337120D01*
X111810800Y-96342200D01*
X111663480Y-96377760D01*
X111506000Y-96471740D01*
X111389160Y-96611440D01*
X111318040Y-96784160D01*
X111302800Y-96977200D01*
X111290100Y-97076260D01*
X111285020Y-97508060D01*
X111285020Y-98503740D01*
X111290100Y-99098100D01*
X112102900Y-99131120D01*
X112105440Y-99776280D01*
X111264700Y-99781360D01*
X111249460Y-99898200D01*
X111226600Y-100482400D01*
X111216440Y-100505260D01*
X110634780Y-100512880D01*
X110543340Y-100495100D01*
X110525560Y-100383340D01*
X110510320Y-100142040D01*
X110510320Y-99783900D01*
X110096300Y-99750880D01*
X110050580Y-99184460D01*
X110055660Y-99126040D01*
X110510320Y-99120960D01*
X110505240Y-98635820D01*
X110515400Y-97698560D01*
X110525560Y-97266760D01*
X110561120Y-96862900D01*
X110619540Y-96641920D01*
X110677960Y-96436180D01*
X110723680Y-96349820D01*
X110799880Y-96220280D01*
X110881160Y-96108520D01*
X110962440Y-96017080D01*
X111097060Y-95900240D01*
X111239300Y-95806260D01*
X111439960Y-95722440D01*
X111648240Y-95669100D01*
X112003840Y-95628460D01*
X112245140Y-95638620D01*
G37*
X112245140Y-95638620D02*
X112461040Y-95666560D01*
X112549940Y-95694500D01*
X112572800Y-95724980D01*
X112580420Y-95752920D01*
X112577880Y-95758000D01*
X112557560Y-95879920D01*
X112486440Y-96159320D01*
X112420400Y-96349820D01*
X112064800Y-96337120D01*
X111810800Y-96342200D01*
X111663480Y-96377760D01*
X111506000Y-96471740D01*
X111389160Y-96611440D01*
X111318040Y-96784160D01*
X111302800Y-96977200D01*
X111290100Y-97076260D01*
X111285020Y-97508060D01*
X111285020Y-98503740D01*
X111290100Y-99098100D01*
X112102900Y-99131120D01*
X112105440Y-99776280D01*
X111264700Y-99781360D01*
X111249460Y-99898200D01*
X111226600Y-100482400D01*
X111216440Y-100505260D01*
X110634780Y-100512880D01*
X110543340Y-100495100D01*
X110525560Y-100383340D01*
X110510320Y-100142040D01*
X110510320Y-99783900D01*
X110096300Y-99750880D01*
X110050580Y-99184460D01*
X110055660Y-99126040D01*
X110510320Y-99120960D01*
X110505240Y-98635820D01*
X110515400Y-97698560D01*
X110525560Y-97266760D01*
X110561120Y-96862900D01*
X110619540Y-96641920D01*
X110677960Y-96436180D01*
X110723680Y-96349820D01*
X110799880Y-96220280D01*
X110881160Y-96108520D01*
X110962440Y-96017080D01*
X111097060Y-95900240D01*
X111239300Y-95806260D01*
X111439960Y-95722440D01*
X111648240Y-95669100D01*
X112003840Y-95628460D01*
X112245140Y-95638620D01*
D11*
G36*
X108427520Y-95691960D02*
G01*
X108653580Y-95750380D01*
X108945680Y-95857060D01*
X109291120Y-96042480D01*
X109565440Y-96260920D01*
X109661960Y-96352360D01*
X109656880Y-97116900D01*
X109656880Y-99725480D01*
X108963460Y-99722940D01*
X108960920Y-99240340D01*
X108960920Y-98239580D01*
X108958380Y-96629220D01*
X108813600Y-96527620D01*
X108577380Y-96426020D01*
X108183680Y-96319340D01*
X107922060Y-96276160D01*
X107769660Y-96276160D01*
X107553760Y-96314260D01*
X107407710Y-96363790D01*
X107207050Y-96533970D01*
X107185460Y-96570800D01*
X107114340Y-96672400D01*
X107091480Y-96746060D01*
X107068620Y-96875600D01*
X107050840Y-97073720D01*
X107033060Y-97353120D01*
X106997500Y-99717860D01*
X106997500Y-99720400D01*
X106316780Y-99720400D01*
X106321860Y-98104960D01*
X106332020Y-96664780D01*
X106474260Y-96382840D01*
X106646980Y-96123760D01*
X106934000Y-95869760D01*
X107279440Y-95709740D01*
X107650280Y-95641160D01*
X107998260Y-95631000D01*
X108427520Y-95691960D01*
G37*
X108427520Y-95691960D02*
X108653580Y-95750380D01*
X108945680Y-95857060D01*
X109291120Y-96042480D01*
X109565440Y-96260920D01*
X109661960Y-96352360D01*
X109656880Y-97116900D01*
X109656880Y-99725480D01*
X108963460Y-99722940D01*
X108960920Y-99240340D01*
X108960920Y-98239580D01*
X108958380Y-96629220D01*
X108813600Y-96527620D01*
X108577380Y-96426020D01*
X108183680Y-96319340D01*
X107922060Y-96276160D01*
X107769660Y-96276160D01*
X107553760Y-96314260D01*
X107407710Y-96363790D01*
X107207050Y-96533970D01*
X107185460Y-96570800D01*
X107114340Y-96672400D01*
X107091480Y-96746060D01*
X107068620Y-96875600D01*
X107050840Y-97073720D01*
X107033060Y-97353120D01*
X106997500Y-99717860D01*
X106997500Y-99720400D01*
X106316780Y-99720400D01*
X106321860Y-98104960D01*
X106332020Y-96664780D01*
X106474260Y-96382840D01*
X106646980Y-96123760D01*
X106934000Y-95869760D01*
X107279440Y-95709740D01*
X107650280Y-95641160D01*
X107998260Y-95631000D01*
X108427520Y-95691960D01*
G36*
X102857300Y-99514660D02*
G01*
X102976680Y-99595940D01*
X103174800Y-99707700D01*
X103334820Y-99773740D01*
X103698040Y-99867720D01*
X103949500Y-99908360D01*
X104292400Y-99903280D01*
X104452420Y-99874070D01*
X104762300Y-99724210D01*
X104823260Y-99626420D01*
X104907080Y-99507040D01*
X104955340Y-99410520D01*
X104995980Y-99227640D01*
X105011220Y-99141280D01*
X105023920Y-98905060D01*
X105044240Y-97749360D01*
X105056940Y-97213420D01*
X105067100Y-95676720D01*
X105791000Y-95702120D01*
X105778300Y-97530920D01*
X105770680Y-98823780D01*
X105737660Y-99283520D01*
X105669080Y-99580700D01*
X105501440Y-99898200D01*
X105338880Y-100103940D01*
X105107740Y-100289360D01*
X104886760Y-100406200D01*
X104741980Y-100459540D01*
X104449880Y-100540820D01*
X104109520Y-100566220D01*
X103776780Y-100556060D01*
X103360220Y-100474780D01*
X103057960Y-100370640D01*
X102737920Y-100225860D01*
X102400100Y-100015040D01*
X102191820Y-99816920D01*
X102105460Y-99740720D01*
X102120700Y-97914460D01*
X102135940Y-95699580D01*
X102138480Y-95702120D01*
X102577900Y-95689420D01*
X102857300Y-95674180D01*
X102857300Y-99514660D01*
G37*
X102857300Y-99514660D02*
X102976680Y-99595940D01*
X103174800Y-99707700D01*
X103334820Y-99773740D01*
X103698040Y-99867720D01*
X103949500Y-99908360D01*
X104292400Y-99903280D01*
X104452420Y-99874070D01*
X104762300Y-99724210D01*
X104823260Y-99626420D01*
X104907080Y-99507040D01*
X104955340Y-99410520D01*
X104995980Y-99227640D01*
X105011220Y-99141280D01*
X105023920Y-98905060D01*
X105044240Y-97749360D01*
X105056940Y-97213420D01*
X105067100Y-95676720D01*
X105791000Y-95702120D01*
X105778300Y-97530920D01*
X105770680Y-98823780D01*
X105737660Y-99283520D01*
X105669080Y-99580700D01*
X105501440Y-99898200D01*
X105338880Y-100103940D01*
X105107740Y-100289360D01*
X104886760Y-100406200D01*
X104741980Y-100459540D01*
X104449880Y-100540820D01*
X104109520Y-100566220D01*
X103776780Y-100556060D01*
X103360220Y-100474780D01*
X103057960Y-100370640D01*
X102737920Y-100225860D01*
X102400100Y-100015040D01*
X102191820Y-99816920D01*
X102105460Y-99740720D01*
X102120700Y-97914460D01*
X102135940Y-95699580D01*
X102138480Y-95702120D01*
X102577900Y-95689420D01*
X102857300Y-95674180D01*
X102857300Y-99514660D01*
D10*
G36*
X101343460Y-97492820D02*
G01*
X101475540Y-97566480D01*
X101495860Y-97673160D01*
X101493320Y-97970340D01*
X101480620Y-98191320D01*
X101467920Y-98204020D01*
X99740720Y-98229420D01*
X99715320Y-98214180D01*
X99712780Y-98214180D01*
X99730560Y-97505520D01*
X101170740Y-97480120D01*
X101343460Y-97492820D01*
G37*
X101343460Y-97492820D02*
X101475540Y-97566480D01*
X101495860Y-97673160D01*
X101493320Y-97970340D01*
X101480620Y-98191320D01*
X101467920Y-98204020D01*
X99740720Y-98229420D01*
X99715320Y-98214180D01*
X99712780Y-98214180D01*
X99730560Y-97505520D01*
X101170740Y-97480120D01*
X101343460Y-97492820D01*
G36*
X99763580Y-99166680D02*
G01*
X100068380Y-99222560D01*
X100429060Y-99352100D01*
X100738940Y-99517200D01*
X100954840Y-99672140D01*
X101185980Y-99882960D01*
X101406960Y-100152200D01*
X101584760Y-100431600D01*
X101668580Y-100690680D01*
X101714300Y-101005640D01*
X101727000Y-101295200D01*
X101719380Y-101704140D01*
X101635560Y-101945440D01*
X101404420Y-102364540D01*
X101277420Y-102534720D01*
X101119940Y-102717600D01*
X100982780Y-102842060D01*
X100921820Y-102900480D01*
X100754180Y-103014780D01*
X100794820Y-103055420D01*
X100944680Y-103202740D01*
X101102384Y-103350431D01*
X101109780Y-103344980D01*
X101213920Y-103465630D01*
X101495860Y-103955850D01*
X101566980Y-104241600D01*
X101602540Y-104485440D01*
X101584760Y-104790240D01*
X101488240Y-105206800D01*
X101460300Y-105255060D01*
X101389180Y-105399840D01*
X101193600Y-105712260D01*
X101114860Y-105841800D01*
X101135180Y-105862120D01*
X101196140Y-105882440D01*
X101434900Y-105963720D01*
X101635560Y-106055160D01*
X101777800Y-106131360D01*
X101993700Y-106281220D01*
X102156260Y-106431080D01*
X102321360Y-106631740D01*
X102417880Y-106789220D01*
X102506780Y-106974640D01*
X102504240Y-106974640D01*
X102323900Y-107061000D01*
X102100380Y-107154980D01*
X101920040Y-107223560D01*
X101874320Y-107221020D01*
X101800660Y-107154980D01*
X101719380Y-107020360D01*
X101584760Y-106842560D01*
X101422200Y-106690160D01*
X101264720Y-106588560D01*
X101074220Y-106499660D01*
X100830380Y-106466640D01*
X100365560Y-106451400D01*
X100197920Y-106448860D01*
X99441000Y-106446320D01*
X99232720Y-106438700D01*
X99016820Y-106423460D01*
X98821240Y-106380280D01*
X98463100Y-106227880D01*
X98285300Y-106111040D01*
X98031300Y-105902760D01*
X97820480Y-105679240D01*
X97663000Y-105463340D01*
X97556320Y-105257600D01*
X97477580Y-105021380D01*
X97457260Y-104899460D01*
X97444560Y-104708960D01*
X97447123Y-104640380D01*
X98178620Y-104640380D01*
X98214180Y-104851200D01*
X98282760Y-105044240D01*
X98391980Y-105242360D01*
X98544380Y-105415080D01*
X98701860Y-105544620D01*
X98915220Y-105664000D01*
X99189540Y-105745280D01*
X99474020Y-105775760D01*
X99778820Y-105755440D01*
X100126800Y-105664000D01*
X100363020Y-105524300D01*
X100556060Y-105341420D01*
X100690680Y-105148380D01*
X100771960Y-104978200D01*
X100843080Y-104696260D01*
X100843080Y-104513380D01*
X100782120Y-104208580D01*
X100703380Y-104028240D01*
X100522178Y-103781604D01*
X100340160Y-103632000D01*
X100098860Y-103487220D01*
X99788980Y-103390700D01*
X99410520Y-103375460D01*
X99057460Y-103444040D01*
X98752660Y-103581200D01*
X98511360Y-103779320D01*
X98323400Y-104020620D01*
X98249740Y-104180640D01*
X98183700Y-104419400D01*
X98178620Y-104640380D01*
X97447123Y-104640380D01*
X97454720Y-104437180D01*
X97457260Y-104320340D01*
X97475040Y-104208580D01*
X97530920Y-103990140D01*
X97622360Y-103766620D01*
X97817940Y-103492300D01*
X98094800Y-103220520D01*
X98412300Y-102999540D01*
X98691700Y-102864920D01*
X98983800Y-102791260D01*
X99217480Y-102755700D01*
X99562920Y-102715060D01*
X99852480Y-102664260D01*
X100175060Y-102560120D01*
X100350320Y-102461060D01*
X100596700Y-102255320D01*
X100738940Y-102067360D01*
X100868480Y-101833680D01*
X100944680Y-101622860D01*
X100995480Y-101290120D01*
X100987860Y-101109780D01*
X100919280Y-100820220D01*
X100832920Y-100617020D01*
X100639880Y-100345240D01*
X100439220Y-100159820D01*
X100228400Y-100020120D01*
X99898200Y-99875340D01*
X99420680Y-99847400D01*
X99001580Y-99885500D01*
X98592640Y-100111560D01*
X98470720Y-100215700D01*
X98282760Y-100398580D01*
X97975420Y-100731320D01*
X97482660Y-100482400D01*
X97360740Y-100390960D01*
X97406460Y-100281740D01*
X97622360Y-99992180D01*
X97833180Y-99781360D01*
X98008440Y-99631500D01*
X98219260Y-99486720D01*
X98516440Y-99341940D01*
X98846640Y-99230180D01*
X99065080Y-99179380D01*
X99382580Y-99146360D01*
X99763580Y-99166680D01*
G37*
X99763580Y-99166680D02*
X100068380Y-99222560D01*
X100429060Y-99352100D01*
X100738940Y-99517200D01*
X100954840Y-99672140D01*
X101185980Y-99882960D01*
X101406960Y-100152200D01*
X101584760Y-100431600D01*
X101668580Y-100690680D01*
X101714300Y-101005640D01*
X101727000Y-101295200D01*
X101719380Y-101704140D01*
X101635560Y-101945440D01*
X101404420Y-102364540D01*
X101277420Y-102534720D01*
X101119940Y-102717600D01*
X100982780Y-102842060D01*
X100921820Y-102900480D01*
X100754180Y-103014780D01*
X100794820Y-103055420D01*
X100944680Y-103202740D01*
X101102384Y-103350431D01*
X101109780Y-103344980D01*
X101213920Y-103465630D01*
X101495860Y-103955850D01*
X101566980Y-104241600D01*
X101602540Y-104485440D01*
X101584760Y-104790240D01*
X101488240Y-105206800D01*
X101460300Y-105255060D01*
X101389180Y-105399840D01*
X101193600Y-105712260D01*
X101114860Y-105841800D01*
X101135180Y-105862120D01*
X101196140Y-105882440D01*
X101434900Y-105963720D01*
X101635560Y-106055160D01*
X101777800Y-106131360D01*
X101993700Y-106281220D01*
X102156260Y-106431080D01*
X102321360Y-106631740D01*
X102417880Y-106789220D01*
X102506780Y-106974640D01*
X102504240Y-106974640D01*
X102323900Y-107061000D01*
X102100380Y-107154980D01*
X101920040Y-107223560D01*
X101874320Y-107221020D01*
X101800660Y-107154980D01*
X101719380Y-107020360D01*
X101584760Y-106842560D01*
X101422200Y-106690160D01*
X101264720Y-106588560D01*
X101074220Y-106499660D01*
X100830380Y-106466640D01*
X100365560Y-106451400D01*
X100197920Y-106448860D01*
X99441000Y-106446320D01*
X99232720Y-106438700D01*
X99016820Y-106423460D01*
X98821240Y-106380280D01*
X98463100Y-106227880D01*
X98285300Y-106111040D01*
X98031300Y-105902760D01*
X97820480Y-105679240D01*
X97663000Y-105463340D01*
X97556320Y-105257600D01*
X97477580Y-105021380D01*
X97457260Y-104899460D01*
X97444560Y-104708960D01*
X97447123Y-104640380D01*
X98178620Y-104640380D01*
X98214180Y-104851200D01*
X98282760Y-105044240D01*
X98391980Y-105242360D01*
X98544380Y-105415080D01*
X98701860Y-105544620D01*
X98915220Y-105664000D01*
X99189540Y-105745280D01*
X99474020Y-105775760D01*
X99778820Y-105755440D01*
X100126800Y-105664000D01*
X100363020Y-105524300D01*
X100556060Y-105341420D01*
X100690680Y-105148380D01*
X100771960Y-104978200D01*
X100843080Y-104696260D01*
X100843080Y-104513380D01*
X100782120Y-104208580D01*
X100703380Y-104028240D01*
X100522178Y-103781604D01*
X100340160Y-103632000D01*
X100098860Y-103487220D01*
X99788980Y-103390700D01*
X99410520Y-103375460D01*
X99057460Y-103444040D01*
X98752660Y-103581200D01*
X98511360Y-103779320D01*
X98323400Y-104020620D01*
X98249740Y-104180640D01*
X98183700Y-104419400D01*
X98178620Y-104640380D01*
X97447123Y-104640380D01*
X97454720Y-104437180D01*
X97457260Y-104320340D01*
X97475040Y-104208580D01*
X97530920Y-103990140D01*
X97622360Y-103766620D01*
X97817940Y-103492300D01*
X98094800Y-103220520D01*
X98412300Y-102999540D01*
X98691700Y-102864920D01*
X98983800Y-102791260D01*
X99217480Y-102755700D01*
X99562920Y-102715060D01*
X99852480Y-102664260D01*
X100175060Y-102560120D01*
X100350320Y-102461060D01*
X100596700Y-102255320D01*
X100738940Y-102067360D01*
X100868480Y-101833680D01*
X100944680Y-101622860D01*
X100995480Y-101290120D01*
X100987860Y-101109780D01*
X100919280Y-100820220D01*
X100832920Y-100617020D01*
X100639880Y-100345240D01*
X100439220Y-100159820D01*
X100228400Y-100020120D01*
X99898200Y-99875340D01*
X99420680Y-99847400D01*
X99001580Y-99885500D01*
X98592640Y-100111560D01*
X98470720Y-100215700D01*
X98282760Y-100398580D01*
X97975420Y-100731320D01*
X97482660Y-100482400D01*
X97360740Y-100390960D01*
X97406460Y-100281740D01*
X97622360Y-99992180D01*
X97833180Y-99781360D01*
X98008440Y-99631500D01*
X98219260Y-99486720D01*
X98516440Y-99341940D01*
X98846640Y-99230180D01*
X99065080Y-99179380D01*
X99382580Y-99146360D01*
X99763580Y-99166680D01*
G36*
X102839520Y-102801420D02*
G01*
X102862380Y-104160320D01*
X102880160Y-104485440D01*
X102890320Y-104653080D01*
X102918260Y-104716580D01*
X102991920Y-104777540D01*
X103192580Y-104856280D01*
X103284020Y-104889300D01*
X103550720Y-104962960D01*
X103781860Y-105006140D01*
X103957120Y-105021380D01*
X104168400Y-105056593D01*
X104254300Y-105465880D01*
X104267000Y-105653840D01*
X104261920Y-105689400D01*
X104233980Y-105724960D01*
X104178100Y-105727500D01*
X104134920Y-105732580D01*
X104038400Y-105719880D01*
X103759000Y-105707180D01*
X103593900Y-105686860D01*
X103395780Y-105669080D01*
X103245920Y-105641140D01*
X103017320Y-105567480D01*
X102809040Y-105478580D01*
X102603300Y-105369360D01*
X102400100Y-105227120D01*
X102163880Y-105016300D01*
X102158800Y-104795320D01*
X102168960Y-103759000D01*
X102189280Y-101409500D01*
X102826820Y-101406960D01*
X102839520Y-102801420D01*
G37*
X102839520Y-102801420D02*
X102862380Y-104160320D01*
X102880160Y-104485440D01*
X102890320Y-104653080D01*
X102918260Y-104716580D01*
X102991920Y-104777540D01*
X103192580Y-104856280D01*
X103284020Y-104889300D01*
X103550720Y-104962960D01*
X103781860Y-105006140D01*
X103957120Y-105021380D01*
X104168400Y-105056593D01*
X104254300Y-105465880D01*
X104267000Y-105653840D01*
X104261920Y-105689400D01*
X104233980Y-105724960D01*
X104178100Y-105727500D01*
X104134920Y-105732580D01*
X104038400Y-105719880D01*
X103759000Y-105707180D01*
X103593900Y-105686860D01*
X103395780Y-105669080D01*
X103245920Y-105641140D01*
X103017320Y-105567480D01*
X102809040Y-105478580D01*
X102603300Y-105369360D01*
X102400100Y-105227120D01*
X102163880Y-105016300D01*
X102158800Y-104795320D01*
X102168960Y-103759000D01*
X102189280Y-101409500D01*
X102826820Y-101406960D01*
X102839520Y-102801420D01*
G36*
X104170480Y-105056940D02*
G01*
X104168400Y-105056593D01*
X104167940Y-105054400D01*
X104170480Y-105056940D01*
G37*
X104170480Y-105056940D02*
X104168400Y-105056593D01*
X104167940Y-105054400D01*
X104170480Y-105056940D01*
D12*
X105689400Y-101917500D02*
X105851960Y-101925120D01*
X105694480Y-101887020D02*
X105689400Y-101917500D01*
X106598720Y-102041960D02*
X105694480Y-101887020D01*
X106563160Y-102163880D02*
X106598720Y-102041960D01*
D10*
G36*
X106149140Y-101371400D02*
G01*
X106380280Y-101424740D01*
X106613960Y-101493320D01*
X106915294Y-101587012D01*
X106918760Y-101582220D01*
X107228640Y-101716840D01*
X107228640Y-104617520D01*
X107111800Y-104843580D01*
X106967020Y-105110280D01*
X106796840Y-105333800D01*
X106537760Y-105534460D01*
X106332020Y-105633520D01*
X106113580Y-105694480D01*
X105897680Y-105714800D01*
X105567480Y-105712260D01*
X105247440Y-105694480D01*
X104952800Y-105648760D01*
X104747060Y-105587800D01*
X104734360Y-105509060D01*
X104762300Y-105389680D01*
X104780080Y-105262680D01*
X104843580Y-104973120D01*
X104884220Y-104929940D01*
X105001060Y-104942640D01*
X105445560Y-104993440D01*
X105874820Y-104990900D01*
X105943400Y-104978200D01*
X106032300Y-104947720D01*
X106154220Y-104889300D01*
X106268520Y-104797860D01*
X106362500Y-104678480D01*
X106423460Y-104556560D01*
X106471720Y-104421940D01*
X106486960Y-104325420D01*
X106448860Y-104297480D01*
X106415840Y-104300020D01*
X106174540Y-104360980D01*
X105747820Y-104409240D01*
X105295700Y-104378760D01*
X105082340Y-104317800D01*
X104894380Y-104249220D01*
X104658160Y-104122220D01*
X104386380Y-103903780D01*
X104231440Y-103720900D01*
X104101900Y-103477060D01*
X104038400Y-103179880D01*
X104040280Y-102933500D01*
X104739440Y-102933500D01*
X104749600Y-103101140D01*
X104810560Y-103301800D01*
X104940100Y-103492300D01*
X105013760Y-103545640D01*
X105176320Y-103659940D01*
X105336340Y-103708200D01*
X105483660Y-103723440D01*
X105653840Y-103733600D01*
X105953560Y-103718360D01*
X106126280Y-103692960D01*
X106420920Y-103601520D01*
X106512360Y-103571040D01*
X106514900Y-102946200D01*
X106512360Y-102461060D01*
X106514900Y-102344220D01*
X106507280Y-102151180D01*
X106846435Y-101682225D01*
X106507280Y-102143560D01*
X106222800Y-102034340D01*
X105839260Y-101939090D01*
X105290620Y-102029260D01*
X105112820Y-102156260D01*
X104983280Y-102285800D01*
X104797860Y-102588060D01*
X104744520Y-102786180D01*
X104739440Y-102933500D01*
X104040280Y-102933500D01*
X104040940Y-102847140D01*
X104051100Y-102577900D01*
X104081580Y-102453440D01*
X104150160Y-102288340D01*
X104269540Y-102072440D01*
X104411780Y-101884480D01*
X104614980Y-101676200D01*
X104863900Y-101506020D01*
X105087420Y-101409500D01*
X105430320Y-101335840D01*
X105757980Y-101318060D01*
X106149140Y-101371400D01*
G37*
X106149140Y-101371400D02*
X106380280Y-101424740D01*
X106613960Y-101493320D01*
X106915294Y-101587012D01*
X106918760Y-101582220D01*
X107228640Y-101716840D01*
X107228640Y-104617520D01*
X107111800Y-104843580D01*
X106967020Y-105110280D01*
X106796840Y-105333800D01*
X106537760Y-105534460D01*
X106332020Y-105633520D01*
X106113580Y-105694480D01*
X105897680Y-105714800D01*
X105567480Y-105712260D01*
X105247440Y-105694480D01*
X104952800Y-105648760D01*
X104747060Y-105587800D01*
X104734360Y-105509060D01*
X104762300Y-105389680D01*
X104780080Y-105262680D01*
X104843580Y-104973120D01*
X104884220Y-104929940D01*
X105001060Y-104942640D01*
X105445560Y-104993440D01*
X105874820Y-104990900D01*
X105943400Y-104978200D01*
X106032300Y-104947720D01*
X106154220Y-104889300D01*
X106268520Y-104797860D01*
X106362500Y-104678480D01*
X106423460Y-104556560D01*
X106471720Y-104421940D01*
X106486960Y-104325420D01*
X106448860Y-104297480D01*
X106415840Y-104300020D01*
X106174540Y-104360980D01*
X105747820Y-104409240D01*
X105295700Y-104378760D01*
X105082340Y-104317800D01*
X104894380Y-104249220D01*
X104658160Y-104122220D01*
X104386380Y-103903780D01*
X104231440Y-103720900D01*
X104101900Y-103477060D01*
X104038400Y-103179880D01*
X104040280Y-102933500D01*
X104739440Y-102933500D01*
X104749600Y-103101140D01*
X104810560Y-103301800D01*
X104940100Y-103492300D01*
X105013760Y-103545640D01*
X105176320Y-103659940D01*
X105336340Y-103708200D01*
X105483660Y-103723440D01*
X105653840Y-103733600D01*
X105953560Y-103718360D01*
X106126280Y-103692960D01*
X106420920Y-103601520D01*
X106512360Y-103571040D01*
X106514900Y-102946200D01*
X106512360Y-102461060D01*
X106514900Y-102344220D01*
X106507280Y-102151180D01*
X106846435Y-101682225D01*
X106507280Y-102143560D01*
X106222800Y-102034340D01*
X105839260Y-101939090D01*
X105290620Y-102029260D01*
X105112820Y-102156260D01*
X104983280Y-102285800D01*
X104797860Y-102588060D01*
X104744520Y-102786180D01*
X104739440Y-102933500D01*
X104040280Y-102933500D01*
X104040940Y-102847140D01*
X104051100Y-102577900D01*
X104081580Y-102453440D01*
X104150160Y-102288340D01*
X104269540Y-102072440D01*
X104411780Y-101884480D01*
X104614980Y-101676200D01*
X104863900Y-101506020D01*
X105087420Y-101409500D01*
X105430320Y-101335840D01*
X105757980Y-101318060D01*
X106149140Y-101371400D01*
D12*
X108775500Y-101600000D02*
X109237780Y-101846380D01*
X108907580Y-101544120D02*
X108775500Y-101600000D01*
X109227620Y-101442520D02*
X108907580Y-101544120D01*
X109504480Y-101399340D02*
X109227620Y-101442520D01*
X109296200Y-101432360D02*
X109504480Y-101399340D01*
X109590840Y-101412040D02*
X109296200Y-101432360D01*
X109956600Y-101437440D02*
X109590840Y-101412040D01*
X110147100Y-101493320D02*
X109956600Y-101437440D01*
X110436660Y-101625400D02*
X110147100Y-101493320D01*
X110764320Y-101859080D02*
X110436660Y-101625400D01*
X111033560Y-102125780D02*
X110764320Y-101859080D01*
X109946440Y-102006400D02*
X111033560Y-102125780D01*
X109720380Y-101942900D02*
X109946440Y-102006400D01*
X109694980Y-101904800D02*
X109720380Y-101942900D01*
X109336840Y-101963220D02*
X109694980Y-101904800D01*
X109156500Y-102019100D02*
X109336840Y-101963220D01*
X109209840Y-101963220D02*
X109156500Y-102019100D01*
X108851700Y-102191820D02*
X109209840Y-101963220D01*
X108805980Y-102245160D02*
X108851700Y-102191820D01*
X108805980Y-102229920D02*
X108805980Y-102245160D01*
X108704380Y-102255320D02*
X108805980Y-102229920D01*
X108483400Y-102633780D02*
X108704380Y-102255320D01*
X108503720Y-102585520D02*
X108483400Y-102633780D01*
X108529120Y-101826060D02*
X108503720Y-102585520D01*
X108592620Y-101691440D02*
X108529120Y-101826060D01*
X108536740Y-101734620D02*
X108592620Y-101691440D01*
X108480860Y-101572060D02*
X108536740Y-101734620D01*
X108455460Y-101650800D02*
X108480860Y-101572060D01*
X108463080Y-100878640D02*
X108455460Y-101650800D01*
X107830620Y-103825040D02*
X107980480Y-103428800D01*
X107823000Y-101338380D02*
X107830620Y-103825040D01*
X109220000Y-105653840D02*
X109410500Y-105496360D01*
X109598460Y-105717340D02*
X109220000Y-105653840D01*
X110065820Y-105618280D02*
X109598460Y-105717340D01*
X110441740Y-105468420D02*
X110065820Y-105618280D01*
X111058960Y-104927400D02*
X110644940Y-105336340D01*
X111302800Y-104515920D02*
X111058960Y-104927400D01*
X110906560Y-103482140D02*
X110886240Y-103289100D01*
X110893860Y-103695500D02*
X110906560Y-103482140D01*
X110835440Y-104061260D02*
X110893860Y-103695500D01*
X110774480Y-104226360D02*
X110835440Y-104061260D01*
X110647480Y-104495600D02*
X110774480Y-104226360D01*
X110271560Y-104881680D02*
X110647480Y-104495600D01*
X110312200Y-104889300D02*
X110271560Y-104881680D01*
X109910880Y-105087420D02*
X110312200Y-104889300D01*
X109969300Y-105107740D02*
X109910880Y-105087420D01*
X109486700Y-105128060D02*
X109969300Y-105107740D01*
X109098080Y-105023920D02*
X109486700Y-105128060D01*
X109011720Y-105069640D02*
X109098080Y-105023920D01*
X108729780Y-104744520D02*
X109011720Y-105069640D01*
X108493560Y-104454960D02*
X108729780Y-104744520D01*
X107957620Y-105295700D02*
X108493560Y-104454960D01*
X107889040Y-105232200D02*
X107957620Y-105295700D01*
X107835700Y-105029000D02*
X107889040Y-105232200D01*
X107833160Y-104881680D02*
X107835700Y-105029000D01*
X107838240Y-100558600D02*
X107833160Y-104881680D01*
X107866180Y-100302060D02*
X107838240Y-100558600D01*
X108452920Y-100291900D02*
X107866180Y-100302060D01*
D10*
G36*
X108496100Y-104249220D02*
G01*
X108544360Y-104557830D01*
X109235240Y-105073450D01*
X109918500Y-105097580D01*
X110614460Y-104589580D01*
X110863380Y-103863140D01*
X110853220Y-103433880D01*
X110855760Y-103433880D01*
X110848140Y-103311960D01*
X110710980Y-102852220D01*
X110533180Y-102506780D01*
X110114080Y-102130860D01*
X109829600Y-101982270D01*
X109255560Y-102005130D01*
X108849160Y-102252780D01*
X108559600Y-102613460D01*
X108592620Y-101625400D01*
X109095540Y-101412040D01*
X109893100Y-101368860D01*
X110710980Y-101734620D01*
X111193580Y-102237540D01*
X111404400Y-102636320D01*
X111531400Y-103092250D01*
X111551720Y-103887270D01*
X111419640Y-104429560D01*
X111003080Y-105069640D01*
X110530640Y-105496360D01*
X109781340Y-105755440D01*
X109418120Y-105745280D01*
X108930440Y-105615740D01*
X108549440Y-105458260D01*
X108343700Y-105392220D01*
X108012865Y-105392220D01*
X107791250Y-105199180D01*
X107787440Y-100304600D01*
X108493560Y-100241100D01*
X108496100Y-104249220D01*
G37*
X108496100Y-104249220D02*
X108544360Y-104557830D01*
X109235240Y-105073450D01*
X109918500Y-105097580D01*
X110614460Y-104589580D01*
X110863380Y-103863140D01*
X110853220Y-103433880D01*
X110855760Y-103433880D01*
X110848140Y-103311960D01*
X110710980Y-102852220D01*
X110533180Y-102506780D01*
X110114080Y-102130860D01*
X109829600Y-101982270D01*
X109255560Y-102005130D01*
X108849160Y-102252780D01*
X108559600Y-102613460D01*
X108592620Y-101625400D01*
X109095540Y-101412040D01*
X109893100Y-101368860D01*
X110710980Y-101734620D01*
X111193580Y-102237540D01*
X111404400Y-102636320D01*
X111531400Y-103092250D01*
X111551720Y-103887270D01*
X111419640Y-104429560D01*
X111003080Y-105069640D01*
X110530640Y-105496360D01*
X109781340Y-105755440D01*
X109418120Y-105745280D01*
X108930440Y-105615740D01*
X108549440Y-105458260D01*
X108343700Y-105392220D01*
X108012865Y-105392220D01*
X107791250Y-105199180D01*
X107787440Y-100304600D01*
X108493560Y-100241100D01*
X108496100Y-104249220D01*
G36*
X114221260Y-101356160D02*
G01*
X114609880Y-101434900D01*
X114973100Y-101579680D01*
X115285520Y-101780340D01*
X115503960Y-101975920D01*
X115702080Y-102209600D01*
X115793520Y-102349300D01*
X115811300Y-102402640D01*
X115780820Y-102440740D01*
X115613180Y-102570280D01*
X115397280Y-102697280D01*
X115300760Y-102748080D01*
X115234720Y-102753160D01*
X115148360Y-102671880D01*
X115079780Y-102577900D01*
X114863880Y-102362000D01*
X114731800Y-102242620D01*
X114612420Y-102151180D01*
X114528600Y-102095300D01*
X114386360Y-102041960D01*
X114246660Y-102011480D01*
X113977420Y-102001320D01*
X113766600Y-102026720D01*
X113571020Y-102077520D01*
X113400840Y-102161340D01*
X113172240Y-102328980D01*
X112941100Y-102560120D01*
X112915700Y-102613460D01*
X112933480Y-102666800D01*
X114150775Y-104225725D01*
X113317655Y-103726615D01*
X112737265Y-103405305D01*
X112651540Y-103388160D01*
X112608360Y-103408480D01*
X111945420Y-103052880D01*
X112008920Y-102816660D01*
X112057180Y-102666800D01*
X112171480Y-102440740D01*
X112303560Y-102229920D01*
X112621060Y-101881940D01*
X112839500Y-101704140D01*
X113139220Y-101528880D01*
X113464340Y-101414580D01*
X113845340Y-101346000D01*
X114221260Y-101356160D01*
G37*
X114221260Y-101356160D02*
X114609880Y-101434900D01*
X114973100Y-101579680D01*
X115285520Y-101780340D01*
X115503960Y-101975920D01*
X115702080Y-102209600D01*
X115793520Y-102349300D01*
X115811300Y-102402640D01*
X115780820Y-102440740D01*
X115613180Y-102570280D01*
X115397280Y-102697280D01*
X115300760Y-102748080D01*
X115234720Y-102753160D01*
X115148360Y-102671880D01*
X115079780Y-102577900D01*
X114863880Y-102362000D01*
X114731800Y-102242620D01*
X114612420Y-102151180D01*
X114528600Y-102095300D01*
X114386360Y-102041960D01*
X114246660Y-102011480D01*
X113977420Y-102001320D01*
X113766600Y-102026720D01*
X113571020Y-102077520D01*
X113400840Y-102161340D01*
X113172240Y-102328980D01*
X112941100Y-102560120D01*
X112915700Y-102613460D01*
X112933480Y-102666800D01*
X114150775Y-104225725D01*
X113317655Y-103726615D01*
X112737265Y-103405305D01*
X112651540Y-103388160D01*
X112608360Y-103408480D01*
X111945420Y-103052880D01*
X112008920Y-102816660D01*
X112057180Y-102666800D01*
X112171480Y-102440740D01*
X112303560Y-102229920D01*
X112621060Y-101881940D01*
X112839500Y-101704140D01*
X113139220Y-101528880D01*
X113464340Y-101414580D01*
X113845340Y-101346000D01*
X114221260Y-101356160D01*
D12*
X114175540Y-105620820D02*
X113911380Y-105669080D01*
D10*
G36*
X112631220Y-103400860D02*
G01*
X112605820Y-103489760D01*
X112636300Y-103974900D01*
X112765840Y-104376220D01*
X112938560Y-104686100D01*
X113157000Y-104886760D01*
X113362740Y-104995980D01*
X113598960Y-105067100D01*
X113802160Y-105059480D01*
X114025680Y-105008680D01*
X114322860Y-104853740D01*
X114609880Y-104614980D01*
X114607340Y-104617520D01*
X114790220Y-105379520D01*
X114581940Y-105526840D01*
X114211100Y-105674160D01*
X113761520Y-105745280D01*
X113393220Y-105707180D01*
X113098580Y-105603040D01*
X112875060Y-105483660D01*
X112664240Y-105341420D01*
X112476280Y-105163620D01*
X112273080Y-104902000D01*
X112034320Y-104388920D01*
X111937800Y-104023160D01*
X111907320Y-103471980D01*
X111937800Y-103073200D01*
X111947960Y-103047800D01*
X112631220Y-103400860D01*
G37*
X112631220Y-103400860D02*
X112605820Y-103489760D01*
X112636300Y-103974900D01*
X112765840Y-104376220D01*
X112938560Y-104686100D01*
X113157000Y-104886760D01*
X113362740Y-104995980D01*
X113598960Y-105067100D01*
X113802160Y-105059480D01*
X114025680Y-105008680D01*
X114322860Y-104853740D01*
X114609880Y-104614980D01*
X114607340Y-104617520D01*
X114790220Y-105379520D01*
X114581940Y-105526840D01*
X114211100Y-105674160D01*
X113761520Y-105745280D01*
X113393220Y-105707180D01*
X113098580Y-105603040D01*
X112875060Y-105483660D01*
X112664240Y-105341420D01*
X112476280Y-105163620D01*
X112273080Y-104902000D01*
X112034320Y-104388920D01*
X111937800Y-104023160D01*
X111907320Y-103471980D01*
X111937800Y-103073200D01*
X111947960Y-103047800D01*
X112631220Y-103400860D01*
D12*
X115120420Y-104980740D02*
X114929920Y-105194100D01*
X115491260Y-104305100D02*
X115443000Y-104416860D01*
D13*
G36*
X115257580Y-104904540D02*
G01*
X114802920Y-105384600D01*
X114597180Y-104510840D01*
X115486180Y-104475280D01*
X115257580Y-104904540D01*
G37*
X115257580Y-104904540D02*
X114802920Y-105384600D01*
X114597180Y-104510840D01*
X115486180Y-104475280D01*
X115257580Y-104904540D01*
G36*
X115486180Y-104482900D02*
G01*
X115242340Y-104904540D01*
X113880900Y-104071420D01*
X113883440Y-104071420D01*
X115486180Y-104482900D01*
G37*
X115486180Y-104482900D02*
X115242340Y-104904540D01*
X113880900Y-104071420D01*
X113883440Y-104071420D01*
X115486180Y-104482900D01*
G36*
X115548667Y-104272561D02*
G01*
X115239800Y-104785160D01*
X112369600Y-103159560D01*
X112945590Y-102672592D01*
X115548667Y-104272561D01*
G37*
X115548667Y-104272561D02*
X115239800Y-104785160D01*
X112369600Y-103159560D01*
X112945590Y-102672592D01*
X115548667Y-104272561D01*
X101720854Y-106099055D02*
G75*
G03X101383253Y-105947591I-1117409J-2038641D01*
G01*
X101775713Y-107115871D02*
G75*
G03X101819542Y-107173741I490662J326082D01*
G01*
X101286440Y-105912816D02*
X101383253Y-105947591D01*
X101819541Y-107173741D02*
G75*
G03X101860301Y-107215511I349872J300637D01*
G01*
X101860301Y-107215511D02*
G75*
G03X101888401Y-107226319I28100J31127D01*
G01*
X102115944Y-107149223D02*
X102011940Y-107189615D01*
X102228341Y-107101370D02*
X102115944Y-107149223D01*
X102426817Y-106813869D02*
G75*
G03X102244058Y-106533597I-1479804J-765223D01*
G01*
X101130478Y-105855082D02*
X101202627Y-105882043D01*
X101729249Y-101276319D02*
X101725229Y-101560183D01*
X101119422Y-105849449D02*
G75*
G03X101130478Y-105855082I30550J46298D01*
G01*
X101282034Y-105578129D02*
X101215372Y-105679322D01*
X101706060Y-101728435D02*
G75*
G03X101725229Y-101560183I-1034133J203034D01*
G01*
X101161484Y-105765985D02*
X101117342Y-105840535D01*
X101282034Y-105578129D02*
G75*
G03X101545651Y-104991449I-1576687J1061029D01*
G01*
X101052216Y-102785992D02*
G75*
G03X101250528Y-102568249I-2028336J2046522D01*
G01*
X101587363Y-104368528D02*
G75*
G03X101400312Y-103769880I-1699132J-202359D01*
G01*
X101400312Y-103769881D02*
G75*
G03X101005150Y-103253255I-1741171J-922364D01*
G01*
X101661735Y-101877340D02*
G75*
G03X101706061Y-101728435I-755408J305917D01*
G01*
X102510873Y-106976421D02*
X102228341Y-107101370D01*
X101545651Y-104991449D02*
G75*
G03X101587364Y-104368528I-1639779J422661D01*
G01*
X101661735Y-101877341D02*
X101571421Y-102080205D01*
X101215372Y-105679322D02*
X101161484Y-105765985D01*
X101250527Y-102568248D02*
G75*
G03X101433150Y-102321649I-2364292J1941825D01*
G01*
X99488292Y-103376807D02*
G75*
G03X98932881Y-103492825I2237J-1398170D01*
G01*
X99736686Y-103390277D02*
G75*
G03X99488291Y-103376807I-244823J-2217611D01*
G01*
X99942532Y-103432402D02*
G75*
G03X99736686Y-103390277I-331465J-1095712D01*
G01*
X100135553Y-103511008D02*
G75*
G03X99942532Y-103432403I-518033J-995777D01*
G01*
X100641407Y-103933426D02*
G75*
G03X100344580Y-103635844I-923699J-624529D01*
G01*
X100830830Y-104746241D02*
G75*
G03X100811804Y-104323556I-1144514J160252D01*
G01*
X101202627Y-105882043D02*
X101286440Y-105912816D01*
X100867214Y-102937621D02*
X100751175Y-103015691D01*
X102426816Y-106813870D02*
X102510873Y-106976421D01*
X102008524Y-106294645D02*
G75*
G03X101720854Y-106099055I-1162383J-1400266D01*
G01*
X100867214Y-102937621D02*
G75*
G03X101052216Y-102785991I-708644J1053287D01*
G01*
X101729250Y-101276319D02*
G75*
G03X101701305Y-100854204I-3446136J-16158D01*
G01*
X101433151Y-102321650D02*
G75*
G03X101571421Y-102080205I-1725352J1148392D01*
G01*
X101701305Y-100854203D02*
G75*
G03X101618947Y-100526545I-1414555J-181372D01*
G01*
X100344580Y-103635844D02*
G75*
G03X100135553Y-103511008I-1167046J-1716695D01*
G01*
X100811805Y-104323556D02*
G75*
G03X100641407Y-103933425I-1140868J-266020D01*
G01*
X102244057Y-106533598D02*
G75*
G03X102008524Y-106294645I-1311342J-1057019D01*
G01*
X100694638Y-105137124D02*
G75*
G03X100830831Y-104746241I-915447J538132D01*
G01*
X101117342Y-105840535D02*
G75*
G03X101119422Y-105849450I5745J-3360D01*
G01*
X102011940Y-107189615D02*
X101924247Y-107220457D01*
X100751175Y-103015691D02*
X101005150Y-103253255D01*
X100561518Y-105326490D02*
G75*
G03X100694638Y-105137124I-1095586J911642D01*
G01*
X100405161Y-105482088D02*
G75*
G03X100561518Y-105326491I-748590J908608D01*
G01*
X100222485Y-105605817D02*
G75*
G03X100405161Y-105482087I-566271J1032769D01*
G01*
X101888401Y-107226318D02*
G75*
G03X101924247Y-107220457I0J112539D01*
G01*
X100011033Y-105700338D02*
G75*
G03X100222485Y-105605817I-475181J1346805D01*
G01*
X101734601Y-107047332D02*
G75*
G03X101775712Y-107115871I760550J409583D01*
G01*
X98294778Y-99446699D02*
G75*
G03X97500372Y-100146320I1174820J-2134813D01*
G01*
X97445936Y-100224058D02*
X97500372Y-100146320D01*
X100614445Y-102232410D02*
G75*
G03X100843748Y-101885399I-1239382J1068244D01*
G01*
X97400000Y-100296313D02*
X97445936Y-100224058D01*
X97448631Y-100458230D02*
X97369992Y-100405616D01*
X98764766Y-100000023D02*
G75*
G03X98643232Y-100077825I549801J-992666D01*
G01*
X98354603Y-100318901D02*
X98234937Y-100442116D01*
X100511665Y-106454344D02*
X99983253Y-106450791D01*
X99998319Y-99916842D02*
G75*
G03X99858041Y-99876277I-302060J-781744D01*
G01*
X97448667Y-104837317D02*
G75*
G03X97499004Y-105109448I1366595J112063D01*
G01*
X98643232Y-100077825D02*
X98498377Y-100191229D01*
X101496715Y-106753150D02*
G75*
G03X101335322Y-106629038I-909451J-1015644D01*
G01*
X97665924Y-100580191D02*
X97548015Y-100517646D01*
X99439271Y-102728516D02*
G75*
G03X99936040Y-102641774I-282613J3084400D01*
G01*
X100319688Y-102480698D02*
G75*
G03X100614445Y-102232410I-624885J1040944D01*
G01*
X97442600Y-104512840D02*
G75*
G03X97448667Y-104837316I2569810J-114244D01*
G01*
X98691069Y-106332945D02*
G75*
G03X98892866Y-106398851I598386J1490306D01*
G01*
X97364755Y-100357719D02*
G75*
G03X97358253Y-100383101I46291J-25382D01*
G01*
X99936040Y-102641775D02*
G75*
G03X100319688Y-102480698I-366978J1411478D01*
G01*
X97477493Y-104189443D02*
G75*
G03X97442600Y-104512840I2543635J-438026D01*
G01*
X97548015Y-100517646D02*
X97448631Y-100458230D01*
X98047503Y-103255691D02*
G75*
G03X97745015Y-103576192I1400462J-1624745D01*
G01*
X101734602Y-107047332D02*
G75*
G03X101632860Y-106895423I-838459J-451539D01*
G01*
X99211103Y-99856668D02*
G75*
G03X99059323Y-99876089I39473J-911330D01*
G01*
X99458253Y-99851319D02*
X99211103Y-99856669D01*
X99253651Y-102747894D02*
X99439271Y-102728516D01*
X99073010Y-102771558D02*
X99253651Y-102747894D01*
X98832792Y-102816366D02*
G75*
G03X98422932Y-102992083I606054J-1979472D01*
G01*
X97745015Y-103576192D02*
G75*
G03X97551860Y-103920473I1104902J-846214D01*
G01*
X101632859Y-106895423D02*
G75*
G03X101496715Y-106753151I-988772J-809910D01*
G01*
X100821074Y-106466926D02*
X100511665Y-106454344D01*
X98303685Y-106123498D02*
G75*
G03X98691069Y-106332946I1109629J1589345D01*
G01*
X101335322Y-106629039D02*
G75*
G03X101158253Y-106531242I-729012J-1110737D01*
G01*
X97364755Y-100357718D02*
X97400000Y-100296313D01*
X97499004Y-105109448D02*
G75*
G03X97663252Y-105466632I1288152J375989D01*
G01*
X100625296Y-100332212D02*
G75*
G03X100167333Y-99990823I-1145657J-1058996D01*
G01*
X99983253Y-106450791D02*
X99375521Y-106447278D01*
X99698317Y-99856934D02*
X99458253Y-99851319D01*
X100987522Y-101347856D02*
G75*
G03X100912030Y-100805696I-1344347J89145D01*
G01*
X100167333Y-99990823D02*
G75*
G03X99998320Y-99916841I-926986J-1887675D01*
G01*
X101618947Y-100526545D02*
G75*
G03X101463285Y-100232120I-1284865J-490944D01*
G01*
X99309208Y-99151859D02*
G75*
G03X98294778Y-99446699I151314J-2413164D01*
G01*
X98918560Y-102795974D02*
X99073010Y-102771558D01*
X97973596Y-100735503D02*
X97665924Y-100580191D01*
X99858041Y-99876277D02*
G75*
G03X99698317Y-99856934I-210776J-1071346D01*
G01*
X98892866Y-106398851D02*
G75*
G03X99089733Y-106432693I311386J1221875D01*
G01*
X97551860Y-103920474D02*
G75*
G03X97477493Y-104189443I1313778J-508013D01*
G01*
X98928738Y-99918506D02*
G75*
G03X98764765Y-100000024I834437J-1884146D01*
G01*
X101023341Y-106490263D02*
G75*
G03X100821074Y-106466926I-351862J-2161511D01*
G01*
X99059323Y-99876089D02*
G75*
G03X98928738Y-99918506I140210J-653868D01*
G01*
X97663251Y-105466632D02*
G75*
G03X97946168Y-105819942I1953518J1274369D01*
G01*
X98918560Y-102795975D02*
G75*
G03X98832792Y-102816366I116987J-682625D01*
G01*
X97946168Y-105819942D02*
G75*
G03X98303685Y-106123498I1780812J1735061D01*
G01*
X98234937Y-100442116D02*
X97973596Y-100735503D01*
X101463286Y-100232120D02*
G75*
G03X101208635Y-99913801I-2498333J-1737609D01*
G01*
X101208635Y-99913801D02*
G75*
G03X100347269Y-99318346I-1736432J-1591126D01*
G01*
X97358253Y-100383102D02*
G75*
G03X97369992Y-100405616I27460J1D01*
G01*
X100843748Y-101885398D02*
G75*
G03X100987522Y-101347856I-1287965J632483D01*
G01*
X100347269Y-99318345D02*
G75*
G03X99309208Y-99151859I-888425J-2219970D01*
G01*
X98498377Y-100191229D02*
X98354603Y-100318901D01*
X100912029Y-100805696D02*
G75*
G03X100625296Y-100332213I-1301760J-464763D01*
G01*
X98422933Y-102992083D02*
G75*
G03X98047503Y-103255690I1136205J-2017333D01*
G01*
X99375521Y-106447278D02*
X99089733Y-106432693D01*
X101158252Y-106531241D02*
G75*
G03X101023341Y-106490262I-219998J-481711D01*
G01*
X112017955Y-104335585D02*
G75*
G03X112350369Y-105001724I2095414J629637D01*
G01*
X108912432Y-104834961D02*
G75*
G03X109216339Y-105007629I676085J836170D01*
G01*
X109690777Y-102000182D02*
G75*
G03X109128256Y-102096927I-115970J-1009442D01*
G01*
X113324324Y-101458283D02*
G75*
G03X112616262Y-101892115I627884J-1819509D01*
G01*
X112862307Y-105481428D02*
G75*
G03X113494828Y-105723059I900459J1408453D01*
G01*
X110823526Y-103264974D02*
G75*
G03X110641373Y-102712688I-1812070J-291468D01*
G01*
X110233580Y-102222034D02*
G75*
G03X109690777Y-102000181I-666643J-856102D01*
G01*
X110097429Y-104939899D02*
X110202796Y-104872438D01*
X115645752Y-102138422D02*
G75*
G03X114985019Y-101592678I-1656738J-1332971D01*
G01*
X114162839Y-101352424D02*
G75*
G03X113324324Y-101458283I-166853J-2052229D01*
G01*
X109554064Y-105071381D02*
G75*
G03X109911520Y-105026239I24526J1243611D01*
G01*
X112616261Y-101892115D02*
G75*
G03X112286244Y-102266293I2142541J-2222303D01*
G01*
X108653806Y-104562247D02*
G75*
G03X108912432Y-104834961I1156505J837768D01*
G01*
X111945041Y-103064779D02*
G75*
G03X111904021Y-103558649I2977467J-495945D01*
G01*
X110822009Y-103842807D02*
G75*
G03X110823526Y-103264974I-1765849J293556D01*
G01*
X110641373Y-102712688D02*
G75*
G03X110233580Y-102222034I-1323281J-685018D01*
G01*
X111904022Y-103558650D02*
G75*
G03X112017955Y-104335586I2693416J-1847D01*
G01*
X109216339Y-105007629D02*
G75*
G03X109554064Y-105071381I358127J970753D01*
G01*
X108508253Y-103528667D02*
X108508253Y-104361315D01*
X109911521Y-105026239D02*
G75*
G03X109994287Y-104995000I-131825J474533D01*
G01*
X108508253Y-102696019D02*
X108508253Y-103528667D01*
X110294069Y-104801860D02*
G75*
G03X110638357Y-104376518I-980979J1146054D01*
G01*
X109128256Y-102096927D02*
G75*
G03X108663130Y-102485418I558325J-1141147D01*
G01*
X110638356Y-104376518D02*
G75*
G03X110822008Y-103842807I-1494335J812658D01*
G01*
X109393669Y-105741021D02*
X109303651Y-105725712D01*
X114985019Y-101592677D02*
G75*
G03X114162838Y-101352423I-994180J-1875275D01*
G01*
X108508253Y-104361315D02*
X108653806Y-104562246D01*
X112286244Y-102266293D02*
G75*
G03X112067601Y-102645626I1477074J-1104046D01*
G01*
X108663130Y-102485418D02*
X108508253Y-102696019D01*
X109994287Y-104995000D02*
X110097429Y-104939899D01*
X112350370Y-105001724D02*
G75*
G03X112862307Y-105481428I1544262J1135009D01*
G01*
X112067601Y-102645626D02*
G75*
G03X111945042Y-103064779I1685385J-720297D01*
G01*
X110202796Y-104872439D02*
G75*
G03X110294068Y-104801860I-663629J952512D01*
G01*
X109887680Y-101371408D02*
G75*
G03X109157119Y-101397683I-305075J-1687111D01*
G01*
X108163602Y-100226319D02*
X108508253Y-100226319D01*
X110779903Y-105300574D02*
G75*
G03X111100852Y-104951787I-1662775J1852125D01*
G01*
X109025479Y-101434675D02*
X109157119Y-101397683D01*
X111505258Y-104120585D02*
G75*
G03X111545809Y-103848622I-1706968J393524D01*
G01*
X111545809Y-103848622D02*
G75*
G03X111554085Y-103515677I-3726066J259187D01*
G01*
X111554084Y-103515677D02*
G75*
G03X111532506Y-103180110I-3781542J-74692D01*
G01*
X99906805Y-105729327D02*
G75*
G03X100011033Y-105700338I-160964J780626D01*
G01*
X111481135Y-102899324D02*
G75*
G03X111148920Y-102185023I-2105546J-544868D01*
G01*
X108786600Y-101519857D02*
X108896621Y-101477480D01*
X108252821Y-105385896D02*
G75*
G03X108131242Y-105388901I-43663J-694274D01*
G01*
X108786600Y-101519857D02*
G75*
G03X108723193Y-101553312I144695J-351058D01*
G01*
X108560011Y-101626319D02*
G75*
G03X108587089Y-101621699I1J81661D01*
G01*
X107884400Y-100242788D02*
G75*
G03X107821625Y-100266785I44273J-209920D01*
G01*
X108707641Y-105526050D02*
X108516465Y-105447804D01*
X98203842Y-104798481D02*
G75*
G03X98369267Y-105197416I1269954J292844D01*
G01*
X108629297Y-101604873D02*
X108676738Y-101581257D01*
X108536438Y-101605198D02*
G75*
G03X108560012Y-101626319I23574J2596D01*
G01*
X108511375Y-101227077D02*
X108521677Y-101444766D01*
X98932880Y-103492826D02*
G75*
G03X98478687Y-103819249I527875J-1213697D01*
G01*
X109033863Y-105651038D02*
X108864757Y-105590469D01*
X107761965Y-104741990D02*
G75*
G03X107794561Y-105175894I3064669J12049D01*
G01*
X108508253Y-100926319D02*
X108511375Y-101227077D01*
X98218239Y-104286204D02*
G75*
G03X98203841Y-104798481I976488J-283785D01*
G01*
X107760442Y-101900977D02*
X107767168Y-101086365D01*
X108521677Y-101444766D02*
X108536437Y-101605198D01*
X109190401Y-105699855D02*
X109033863Y-105651038D01*
X108587089Y-101621699D02*
X108629297Y-101604873D01*
X99768989Y-105753179D02*
X99906804Y-105729326D01*
X109474125Y-105754874D02*
X109393669Y-105741021D01*
X109541906Y-105766677D02*
X109474125Y-105754874D01*
X107821625Y-100266785D02*
G75*
G03X107788602Y-100305408I37910J-65842D01*
G01*
X98478687Y-103819249D02*
G75*
G03X98218239Y-104286205I885431J-799968D01*
G01*
X107988591Y-100229813D02*
X108163602Y-100226319D01*
X109561570Y-105770438D02*
X109541906Y-105766677D01*
X107794561Y-105175894D02*
G75*
G03X107906985Y-105341840I228237J33569D01*
G01*
X109561569Y-105770438D02*
G75*
G03X109681426Y-105769813I58463J281499D01*
G01*
X108896621Y-101477480D02*
X109025479Y-101434675D01*
X107761965Y-104741989D02*
X107758253Y-102852923D01*
X107767168Y-101086365D02*
X107776242Y-100369706D01*
X107788601Y-100305408D02*
G75*
G03X107776242Y-100369706I174074J-66798D01*
G01*
X111532506Y-103180110D02*
G75*
G03X111481135Y-102899323I-1964913J-214396D01*
G01*
X110587932Y-101648078D02*
G75*
G03X109887680Y-101371408I-1041847J-1612413D01*
G01*
X99489466Y-105773525D02*
X99622461Y-105769050D01*
X109957474Y-105703140D02*
X109681426Y-105769813D01*
X108516465Y-105447804D02*
G75*
G03X108374103Y-105404002I-408202J-1073449D01*
G01*
X111354482Y-104542178D02*
G75*
G03X111505258Y-104120586I-1719965J852877D01*
G01*
X107988591Y-100229813D02*
G75*
G03X107884400Y-100242788I24985J-625457D01*
G01*
X108508253Y-100226319D02*
X108508253Y-100926319D01*
X99035226Y-105703170D02*
G75*
G03X99489466Y-105773525I468797J1525195D01*
G01*
X111148920Y-102185023D02*
G75*
G03X110587932Y-101648078I-1677612J-1191201D01*
G01*
X109190401Y-105699854D02*
G75*
G03X109303651Y-105725712I283696J981612D01*
G01*
X108676738Y-101581257D02*
X108723193Y-101553312D01*
X108374103Y-105404002D02*
G75*
G03X108252821Y-105385895I-166401J-699333D01*
G01*
X98369267Y-105197416D02*
G75*
G03X98652332Y-105506967I986368J617774D01*
G01*
X111100852Y-104951787D02*
G75*
G03X111354482Y-104542177I-2043668J1548768D01*
G01*
X99622461Y-105769050D02*
X99768989Y-105753179D01*
X107906985Y-105341841D02*
G75*
G03X108131242Y-105388901I183350J315865D01*
G01*
X107758253Y-102852923D02*
X107760442Y-101900977D01*
X98652332Y-105506967D02*
G75*
G03X99035226Y-105703170I745223J982601D01*
G01*
X108864757Y-105590469D02*
X108707641Y-105526050D01*
X110236493Y-105620577D02*
X109957474Y-105703140D01*
X110236493Y-105620577D02*
G75*
G03X110428942Y-105540835I-425984J1300162D01*
G01*
X110428942Y-105540835D02*
G75*
G03X110779903Y-105300574I-734347J1449161D01*
G01*
X107174784Y-91221543D02*
G75*
G03X107146100Y-91455616I2140634J-381114D01*
G01*
X106402918Y-94126319D02*
X106418085Y-92588819D01*
X107227634Y-91061325D02*
G75*
G03X107174784Y-91221543I532217J-264382D01*
G01*
X106752153Y-94126319D02*
X106402918Y-94126319D01*
X107117320Y-92688819D02*
X107101387Y-94126319D01*
X107509278Y-90778418D02*
G75*
G03X107343549Y-90900655I331663J-623140D01*
G01*
X106418085Y-92588819D02*
X106433253Y-91051319D01*
X103440644Y-92127583D02*
G75*
G03X103541414Y-92231936I500899J382869D01*
G01*
X107715785Y-90702132D02*
G75*
G03X107509278Y-90778419I177056J-796937D01*
G01*
X107232447Y-90171486D02*
G75*
G03X107017684Y-90285564I684197J-1547262D01*
G01*
X103314852Y-91851319D02*
G75*
G03X103368712Y-92005699I1014329J267296D01*
G01*
X103879795Y-92403698D02*
G75*
G03X104201587Y-92427284I352458J2601756D01*
G01*
X108184561Y-90698151D02*
G75*
G03X107950994Y-90676319I-233568J-1238516D01*
G01*
X108768860Y-90859764D02*
X108483955Y-90767838D01*
X107776509Y-90038122D02*
G75*
G03X107232447Y-90171487I103017J-1596688D01*
G01*
X104544375Y-92409648D02*
G75*
G03X104824346Y-92346618I-153546J1335334D01*
G01*
X108483955Y-90767838D02*
X108184561Y-90698150D01*
X108945753Y-90952679D02*
G75*
G03X108768860Y-90859764I-442663J-627907D01*
G01*
X109758253Y-90733599D02*
X109758253Y-92429959D01*
X109058253Y-92579154D02*
X109058253Y-91031989D01*
X109058253Y-94126319D02*
X109058253Y-92579154D01*
X108417541Y-90072621D02*
G75*
G03X107776509Y-90038121I-465779J-2681840D01*
G01*
X114658253Y-90126319D02*
X115033253Y-90126319D01*
X109058253Y-91031989D02*
X108945753Y-90952678D01*
X109570753Y-90577602D02*
X109758253Y-90733599D01*
X109050304Y-90259661D02*
G75*
G03X108417541Y-90072621I-1122869J-2634866D01*
G01*
X104201588Y-92427284D02*
G75*
G03X104544375Y-92409649I31794J2722251D01*
G01*
X115408253Y-94426319D02*
X115033253Y-94426319D01*
X115408253Y-90126319D02*
X115408253Y-92276319D01*
X107343549Y-90900656D02*
G75*
G03X107227633Y-91061325I427693J-430709D01*
G01*
X106698964Y-90586678D02*
G75*
G03X106566090Y-90801319I1559788J-1114038D01*
G01*
X106433253Y-91051319D02*
X106566090Y-90801319D01*
X115408253Y-92276319D02*
X115408253Y-94426319D01*
X115033253Y-90126319D02*
X115408253Y-90126319D01*
X109758253Y-94126319D02*
X109408253Y-94126319D01*
X107101387Y-94126319D02*
X106752153Y-94126319D01*
X107146100Y-91455616D02*
X107129358Y-91848220D01*
X109758253Y-92429959D02*
X109758253Y-94126319D01*
X109570752Y-90577602D02*
G75*
G03X109050304Y-90259661I-1344749J-1616322D01*
G01*
X107017684Y-90285565D02*
G75*
G03X106844713Y-90419454I590913J-942074D01*
G01*
X106844712Y-90419453D02*
G75*
G03X106698964Y-90586677I789254J-835025D01*
G01*
X103683252Y-92333291D02*
G75*
G03X103879795Y-92403698I263974J427353D01*
G01*
X115033253Y-94426319D02*
X114658253Y-94426319D01*
X107129358Y-91848220D02*
X107117320Y-92688819D01*
X107950993Y-90676319D02*
G75*
G03X107715785Y-90702132I1J-1084505D01*
G01*
X103541415Y-92231936D02*
G75*
G03X103683253Y-92333291I824849J1004388D01*
G01*
X109408253Y-94126319D02*
X109058253Y-94126319D01*
X114658253Y-92276319D02*
X114658253Y-90126319D01*
X114658253Y-94426319D02*
X114658253Y-92276319D01*
X103368711Y-92005698D02*
G75*
G03X103440644Y-92127582I543650J238678D01*
G01*
X104620403Y-93631112D02*
G75*
G03X104847765Y-93461593I-240150J559327D01*
G01*
X103280109Y-94231534D02*
X103327425Y-93971822D01*
X103181693Y-90368747D02*
G75*
G03X102724513Y-90934443I1188591J-1428175D01*
G01*
X105058253Y-91551510D02*
X105058253Y-90836101D01*
X103280108Y-94231534D02*
G75*
G03X103297526Y-94283674I57516J-9766D01*
G01*
X117021433Y-93357348D02*
G75*
G03X117280369Y-93630639I946203J637192D01*
G01*
X103300856Y-91492154D02*
G75*
G03X103314852Y-91851319I814955J-148097D01*
G01*
X105025372Y-94271974D02*
G75*
G03X105253366Y-94117140I-584599J1106102D01*
G01*
X102588809Y-91860353D02*
X102583954Y-91626319D01*
X104298539Y-93702507D02*
G75*
G03X104620403Y-93631111I-27458J884993D01*
G01*
X117280369Y-93630639D02*
G75*
G03X117618593Y-93810657I735939J974965D01*
G01*
X104192027Y-94419035D02*
X103828387Y-94405181D01*
X102724513Y-90934444D02*
G75*
G03X102649728Y-91095115I1667808J-874027D01*
G01*
X104997367Y-93193069D02*
G75*
G03X105032462Y-93068882I-1326621J441960D01*
G01*
X103435735Y-91127713D02*
G75*
G03X103300855Y-91492154I964937J-564304D01*
G01*
X103558253Y-94366546D02*
X103469477Y-94345286D01*
X105533253Y-90311285D02*
G75*
G03X104574223Y-90049719I-1826991J-4809740D01*
G01*
X103682895Y-90839222D02*
G75*
G03X103435735Y-91127713I672649J-826403D01*
G01*
X102583954Y-91626319D02*
X102589775Y-91384743D01*
X103990058Y-90696742D02*
G75*
G03X103682895Y-90839222I126736J-675559D01*
G01*
X105783253Y-91858989D02*
X105783253Y-93311730D01*
X103865089Y-93679216D02*
G75*
G03X104298538Y-93702507I353889J2541046D01*
G01*
X104179305Y-90680123D02*
G75*
G03X103990059Y-90696743I-9964J-972285D01*
G01*
X103792921Y-90068794D02*
G75*
G03X103181693Y-90368748I312911J-1410371D01*
G01*
X102706930Y-92293453D02*
G75*
G03X103057801Y-92723731I1175684J600516D01*
G01*
X104436680Y-90693149D02*
X104179305Y-90680123D01*
X104767118Y-94374694D02*
G75*
G03X105025372Y-94271974I-346154J1246300D01*
G01*
X105020839Y-93017621D02*
G75*
G03X104975308Y-93000021I-37897J-30345D01*
G01*
X105533253Y-90311285D02*
X105783253Y-90406248D01*
X103702988Y-93658730D02*
X103865089Y-93679216D01*
X103388852Y-94321964D02*
X103322932Y-94299414D01*
X105783253Y-90406248D02*
X105783253Y-91858989D01*
X105058253Y-92266918D02*
X105058253Y-91551510D01*
X102588809Y-91860353D02*
G75*
G03X102606548Y-92017069I1133243J48910D01*
G01*
X105448108Y-93911048D02*
G75*
G03X105607847Y-93656524I-1332520J1013675D01*
G01*
X102609093Y-91229088D02*
G75*
G03X102589775Y-91384743I999750J-203105D01*
G01*
X105783253Y-93311730D02*
X105607847Y-93656524D01*
X103297526Y-94283674D02*
G75*
G03X103322932Y-94299414I50902J53790D01*
G01*
X103562310Y-93645537D02*
X103702988Y-93658730D01*
X117994671Y-93876574D02*
G75*
G03X118363291Y-93819413I17049J1107214D01*
G01*
X104696363Y-90727484D02*
X104436680Y-90693149D01*
X104895753Y-90779287D02*
G75*
G03X104696363Y-90727484I-414256J-1184853D01*
G01*
X104824346Y-92346618D02*
X105058253Y-92266918D01*
X104574222Y-90049719D02*
G75*
G03X103792921Y-90068794I-342085J-1998737D01*
G01*
X102649728Y-91095114D02*
G75*
G03X102609093Y-91229087I689727J-282351D01*
G01*
X102606547Y-92017069D02*
G75*
G03X102643012Y-92148568I761613J140391D01*
G01*
X103443779Y-93637855D02*
G75*
G03X103421561Y-93646344I-1615J-29091D01*
G01*
X105058253Y-90836101D02*
X104895753Y-90779287D01*
X103558252Y-94366546D02*
G75*
G03X103828387Y-94405181I400537J1836817D01*
G01*
X104545854Y-94410847D02*
G75*
G03X104767118Y-94374693I-54631J1029493D01*
G01*
X103057801Y-92723731D02*
G75*
G03X103579311Y-93009307I1073778J1341931D01*
G01*
X104975308Y-93000021D02*
G75*
G03X104862800Y-93025014I149373J-938118D01*
G01*
X103421561Y-93646344D02*
G75*
G03X103380817Y-93719961I107677J-107678D01*
G01*
X103443779Y-93637854D02*
X103562310Y-93645537D01*
X104847766Y-93461593D02*
G75*
G03X104997367Y-93193069I-635912J530217D01*
G01*
X117618593Y-93810658D02*
G75*
G03X117994672Y-93876575I394743J1146352D01*
G01*
X102643013Y-92148568D02*
G75*
G03X102706930Y-92293453I1306953J490034D01*
G01*
X103327425Y-93971822D02*
X103380817Y-93719961D01*
X104206994Y-93115011D02*
G75*
G03X104862800Y-93025014I15192J2323696D01*
G01*
X105032461Y-93068882D02*
G75*
G03X105020839Y-93017621I-58571J13668D01*
G01*
X103469477Y-94345286D02*
X103388852Y-94321964D01*
X104545854Y-94410847D02*
X104192027Y-94419035D01*
X105253366Y-94117140D02*
G75*
G03X105448108Y-93911049I-864125J1011594D01*
G01*
X103579311Y-93009307D02*
G75*
G03X104206994Y-93115012I640720J1888166D01*
G01*
X117844106Y-94469621D02*
G75*
G03X118264283Y-94453632I119477J2389168D01*
G01*
X119013141Y-91175933D02*
G75*
G03X118854337Y-90958738I-1276678J-766799D01*
G01*
X119126218Y-91413517D02*
G75*
G03X119013141Y-91175933I-1281671J-464300D01*
G01*
X119651558Y-93595214D02*
G75*
G03X119787862Y-93355299I-1302054J898419D01*
G01*
X119978271Y-92661046D02*
G75*
G03X119971146Y-91852119I-3510053J373578D01*
G01*
X111730755Y-93825466D02*
G75*
G03X112176122Y-93919427I408174J832230D01*
G01*
X111132760Y-93059061D02*
G75*
G03X111366984Y-93524380I1412872J419578D01*
G01*
X115033253Y-96026319D02*
X114658253Y-96026319D01*
X119460882Y-93837483D02*
G75*
G03X119651558Y-93595214I-1830918J1637172D01*
G01*
X116014351Y-92445654D02*
X116009439Y-92226319D01*
X111059131Y-92301284D02*
X111076054Y-92750889D01*
X114658253Y-95226319D02*
X115033253Y-95226319D01*
X118057589Y-89985283D02*
G75*
G03X117291784Y-90093858I-79606J-2193514D01*
G01*
X119059370Y-93189050D02*
G75*
G03X119222244Y-92661868I-1571005J774115D01*
G01*
X111076073Y-91851675D02*
X111059131Y-92301284D01*
X116047280Y-91654208D02*
G75*
G03X116009439Y-92226319I4305940J-572111D01*
G01*
X116274321Y-93502445D02*
G75*
G03X116570787Y-93905732I1551237J829737D01*
G01*
X116756166Y-92604235D02*
G75*
G03X116800483Y-92881914I1665926J123505D01*
G01*
X118672921Y-94364634D02*
G75*
G03X119024328Y-94209192I-505387J1617453D01*
G01*
X116162902Y-91185942D02*
G75*
G03X116047280Y-91654207I2062403J-757650D01*
G01*
X119784724Y-91095815D02*
G75*
G03X119440721Y-90562121I-1406693J-528998D01*
G01*
X119971146Y-91852119D02*
G75*
G03X119784724Y-91095815I-3282323J-407934D01*
G01*
X112176123Y-93919427D02*
G75*
G03X112642783Y-93799663I-46132J1148801D01*
G01*
X117142870Y-90940686D02*
G75*
G03X116916457Y-91264067I846026J-833290D01*
G01*
X118211845Y-90595334D02*
G75*
G03X117833155Y-90590577I-203563J-1129497D01*
G01*
X117458253Y-94407627D02*
G75*
G03X117844106Y-94469621I475291J1726448D01*
G01*
X117463491Y-90708073D02*
G75*
G03X117142871Y-90940686I536714J-1077043D01*
G01*
X119242907Y-94052304D02*
G75*
G03X119460883Y-93837483I-1591000J1832368D01*
G01*
X116657905Y-90461126D02*
G75*
G03X116364078Y-90796275I1258310J-1399544D01*
G01*
X114658253Y-95626319D02*
X114658253Y-95226319D01*
X115408253Y-96026319D02*
X115033253Y-96026319D01*
X116076320Y-93001319D02*
G75*
G03X116274321Y-93502446I2270420J607389D01*
G01*
X115033253Y-95226319D02*
X115408253Y-95226319D01*
X119200733Y-91691825D02*
G75*
G03X119126217Y-91413517I-1652337J-293279D01*
G01*
X116029086Y-92670537D02*
X116014351Y-92445654D01*
X118264283Y-94453631D02*
G75*
G03X118672921Y-94364634I-297722J2349661D01*
G01*
X114658253Y-96026319D02*
X114658253Y-95626319D01*
X118765938Y-93581451D02*
G75*
G03X119059370Y-93189050I-906050J983445D01*
G01*
X111076055Y-92750888D02*
G75*
G03X111132760Y-93059061I1466940J110621D01*
G01*
X116741618Y-92226319D02*
X116756166Y-92604235D01*
X116783889Y-91689629D02*
G75*
G03X116741618Y-92226319I3262096J-526936D01*
G01*
X119024328Y-94209192D02*
G75*
G03X119242907Y-94052303I-736704J1257092D01*
G01*
X117833155Y-90590577D02*
G75*
G03X117463491Y-90708073I192240J-1245090D01*
G01*
X119787862Y-93355298D02*
G75*
G03X119978271Y-92661046I-2033438J930938D01*
G01*
X118819192Y-90149138D02*
G75*
G03X118057589Y-89985284I-842453J-2063849D01*
G01*
X116570787Y-93905732D02*
G75*
G03X116966839Y-94207017I1238279J1216815D01*
G01*
X116364078Y-90796275D02*
G75*
G03X116162903Y-91185943I1455961J-998439D01*
G01*
X118363291Y-93819414D02*
G75*
G03X118765938Y-93581452I-355018J1060347D01*
G01*
X115408253Y-95626319D02*
X115408253Y-96026319D01*
X117291784Y-90093858D02*
G75*
G03X116657905Y-90461126I556702J-1691478D01*
G01*
X116050511Y-92870301D02*
X116029086Y-92670537D01*
X119222244Y-92661868D02*
G75*
G03X119243521Y-92033053I-2898938J412858D01*
G01*
X116050510Y-92870302D02*
G75*
G03X116076320Y-93001319I990661J127103D01*
G01*
X116884535Y-93117220D02*
G75*
G03X117021432Y-93357348I1676641J796767D01*
G01*
X116800483Y-92881914D02*
G75*
G03X116884535Y-93117220I1208186J298902D01*
G01*
X116916457Y-91264067D02*
G75*
G03X116783888Y-91689628I1423788J-676963D01*
G01*
X118854337Y-90958738D02*
G75*
G03X118563298Y-90722350I-847267J-745795D01*
G01*
X119243521Y-92033053D02*
G75*
G03X119200734Y-91691826I-3368922J-249141D01*
G01*
X111366984Y-93524380D02*
G75*
G03X111730756Y-93825467I809526J607770D01*
G01*
X111132790Y-91543475D02*
G75*
G03X111076073Y-91851675I1410629J-418912D01*
G01*
X118563298Y-90722350D02*
G75*
G03X118211845Y-90595334I-549086J-969575D01*
G01*
X119440721Y-90562120D02*
G75*
G03X118819192Y-90149138I-1335080J-1335081D01*
G01*
X116966839Y-94207017D02*
G75*
G03X117458253Y-94407626I1085092J1955860D01*
G01*
X115408253Y-95226319D02*
X115408253Y-95626319D01*
X108958253Y-96631989D02*
X108845753Y-96552678D01*
X106302918Y-99726319D02*
X106318085Y-98188819D01*
X113134242Y-93309471D02*
G75*
G03X113272208Y-92928402I-1399703J722271D01*
G01*
X107127634Y-96661325D02*
G75*
G03X107074784Y-96821543I532217J-264382D01*
G01*
X110373668Y-92973096D02*
G75*
G03X110560183Y-93544255I2388847J464057D01*
G01*
X100593539Y-98214981D02*
X99703825Y-98228644D01*
X101498002Y-97865336D02*
X101483253Y-98201319D01*
X108845753Y-96552679D02*
G75*
G03X108668860Y-96459764I-442663J-627907D01*
G01*
X113342584Y-91946960D02*
G75*
G03X113264486Y-91515335I-2093146J-155852D01*
G01*
X113358253Y-90640003D02*
X113358253Y-90383161D01*
X101484900Y-97614150D02*
G75*
G03X101404077Y-97513565I-126485J-18870D01*
G01*
X113308253Y-93973993D02*
X113053946Y-94175011D01*
X114008253Y-96026319D02*
X113658253Y-96026319D01*
X107850993Y-96276319D02*
G75*
G03X107615785Y-96302132I1J-1084505D01*
G01*
X101404077Y-97513565D02*
G75*
G03X101215278Y-97479093I-186750J-488554D01*
G01*
X113358253Y-90383161D02*
X113358253Y-90126319D01*
X111025754Y-90456231D02*
G75*
G03X110539632Y-91095119I1236439J-1445177D01*
G01*
X112890487Y-90889377D02*
G75*
G03X112404270Y-90647781I-698343J-795371D01*
G01*
X99733253Y-97501319D02*
X100508253Y-97487006D01*
X113358253Y-90126319D02*
X113683253Y-90126319D01*
X112642783Y-93799663D02*
G75*
G03X112925238Y-93596046I-480539J964314D01*
G01*
X112925238Y-93596046D02*
G75*
G03X113134243Y-93309471I-820055J817586D01*
G01*
X99703825Y-98228644D02*
X99718539Y-97864981D01*
X112404270Y-90647781D02*
G75*
G03X111876963Y-90688590I-192431J-940690D01*
G01*
X113264486Y-91515336D02*
G75*
G03X113112234Y-91159419I-1545339J-450534D01*
G01*
X114008253Y-90126319D02*
X114008253Y-93076319D01*
X107017320Y-98288819D02*
X107001387Y-99726319D01*
X108668860Y-96459764D02*
X108383955Y-96367838D01*
X113113527Y-90411091D02*
X113358253Y-90640003D01*
X113308253Y-95000156D02*
X113308253Y-93973993D01*
X110560183Y-93544255D02*
G75*
G03X111013527Y-94129012I1533715J720932D01*
G01*
X111723650Y-90089580D02*
G75*
G03X111025754Y-90456231I455805J-1715122D01*
G01*
X112400689Y-94479253D02*
G75*
G03X113053946Y-94175011I-314299J1528293D01*
G01*
X107243549Y-96500656D02*
G75*
G03X107127633Y-96661325I427693J-430709D01*
G01*
X108958253Y-98179154D02*
X108958253Y-96631989D01*
X113112234Y-91159418D02*
G75*
G03X112890487Y-90889377I-933146J-540196D01*
G01*
X110307203Y-92311523D02*
G75*
G03X110373668Y-92973096I3628823J30449D01*
G01*
X106652153Y-99726319D02*
X106302918Y-99726319D01*
X101498002Y-97865336D02*
G75*
G03X101484900Y-97614149I-1310956J57553D01*
G01*
X113272209Y-92928401D02*
G75*
G03X113343222Y-92442265I-3274302J726554D01*
G01*
X113658253Y-96026319D02*
X113308253Y-96026319D01*
X113683253Y-90126319D02*
X114008253Y-90126319D01*
X107046100Y-97055616D02*
X107029358Y-97448220D01*
X107409278Y-96378418D02*
G75*
G03X107243549Y-96500655I331663J-623140D01*
G01*
X110539632Y-91095119D02*
G75*
G03X110362488Y-91653958I2035186J-952623D01*
G01*
X107001387Y-99726319D02*
X106652153Y-99726319D01*
X107029358Y-97448220D02*
X107017320Y-98288819D01*
X114008253Y-93076319D02*
X114008253Y-96026319D01*
X111013527Y-94129012D02*
G75*
G03X111671616Y-94462878I1069446J1292486D01*
G01*
X99718539Y-97864981D02*
X99733253Y-97501319D01*
X113113527Y-90411091D02*
G75*
G03X112474526Y-90074112I-936126J-1000795D01*
G01*
X111419897Y-91010563D02*
G75*
G03X111132790Y-91543474I1134802J-955172D01*
G01*
X112474526Y-90074112D02*
G75*
G03X111723650Y-90089581I-343716J-1547553D01*
G01*
X111876962Y-90688590D02*
G75*
G03X111419896Y-91010564I382926J-1029001D01*
G01*
X113343221Y-92442265D02*
G75*
G03X113342583Y-91946960I-3385232J243290D01*
G01*
X113308253Y-96026319D02*
X113308253Y-95000156D01*
X101483253Y-98201319D02*
X100593539Y-98214981D01*
X108383955Y-96367838D02*
X108084561Y-96298150D01*
X100508253Y-97487006D02*
X101215278Y-97479093D01*
X107615785Y-96302132D02*
G75*
G03X107409278Y-96378419I177056J-796937D01*
G01*
X110362488Y-91653959D02*
G75*
G03X110307202Y-92311523I3525483J-627517D01*
G01*
X107074784Y-96821543D02*
G75*
G03X107046100Y-97055616I2140634J-381114D01*
G01*
X108084561Y-96298151D02*
G75*
G03X107850994Y-96276319I-233568J-1238516D01*
G01*
X111671616Y-94462879D02*
G75*
G03X112400689Y-94479254I400263J1582492D01*
G01*
X110513421Y-97618462D02*
X110526383Y-97241806D01*
X111487671Y-96488101D02*
G75*
G03X111371599Y-96639665I432130J-451165D01*
G01*
X108950304Y-95859661D02*
G75*
G03X108317541Y-95672621I-1122869J-2634866D01*
G01*
X108317541Y-95672621D02*
G75*
G03X107676509Y-95638121I-465779J-2681840D01*
G01*
X111637871Y-96389524D02*
G75*
G03X111487671Y-96488101I191138J-454951D01*
G01*
X112572237Y-95741768D02*
G75*
G03X112554977Y-95703043I-59133J-3148D01*
G01*
X106744712Y-96019453D02*
G75*
G03X106598964Y-96186677I789254J-835025D01*
G01*
X111685443Y-99776319D02*
X111262633Y-99776319D01*
X111571520Y-95685810D02*
G75*
G03X111114761Y-95896039I294783J-1241772D01*
G01*
X112108253Y-99130363D02*
X112108253Y-99453341D01*
X112570057Y-95815362D02*
G75*
G03X112572237Y-95741768I-442334J49932D01*
G01*
X110280867Y-99126319D02*
X110508253Y-99126319D01*
X110508253Y-99126319D02*
X110509034Y-98088819D01*
X110295753Y-99766693D02*
X110083253Y-99751319D01*
X109308253Y-99726319D02*
X108958253Y-99726319D01*
X112515569Y-96052153D02*
X112426217Y-96351319D01*
X109658253Y-96333599D02*
X109658253Y-98029959D01*
X109658253Y-99726319D02*
X109308253Y-99726319D01*
X106917684Y-95885565D02*
G75*
G03X106744713Y-96019454I590913J-942074D01*
G01*
X109658253Y-98029959D02*
X109658253Y-99726319D01*
X109470752Y-96177602D02*
G75*
G03X108950304Y-95859661I-1344749J-1616322D01*
G01*
X111695753Y-99115841D02*
X112108253Y-99130363D01*
X110543634Y-100495033D02*
G75*
G03X110571758Y-100508380I32790J32790D01*
G01*
X111114761Y-95896039D02*
G75*
G03X110780856Y-96262521I726720J-997471D01*
G01*
X110526383Y-97241806D02*
X110546833Y-96951008D01*
X109470753Y-96177602D02*
X109658253Y-96333599D01*
X112410595Y-95662260D02*
X112517337Y-95682511D01*
X111247943Y-100138819D02*
X111233253Y-100501319D01*
X111283253Y-99101319D02*
X111695753Y-99115841D01*
X112098720Y-96334181D02*
G75*
G03X111836230Y-96339707I-93635J-1789311D01*
G01*
X112279506Y-95645169D02*
X112410595Y-95662260D01*
X107132447Y-95771486D02*
G75*
G03X106917684Y-95885564I684197J-1547262D01*
G01*
X106598964Y-96186678D02*
G75*
G03X106466090Y-96401319I1559788J-1114038D01*
G01*
X110053481Y-99126319D02*
X110280867Y-99126319D01*
X110780857Y-96262521D02*
G75*
G03X110576278Y-96768946I1542421J-917621D01*
G01*
X111283253Y-97951319D02*
X111283253Y-99101319D01*
X111836231Y-96339707D02*
G75*
G03X111637872Y-96389524I63778J-673765D01*
G01*
X110508253Y-99782068D02*
X110295753Y-99766693D01*
X112552016Y-95917334D02*
X112515569Y-96052153D01*
X112133598Y-95634343D02*
X112279506Y-95645169D01*
X107676509Y-95638122D02*
G75*
G03X107132447Y-95771487I103017J-1596688D01*
G01*
X106333253Y-96651319D02*
X106466090Y-96401319D01*
X106318085Y-98188819D02*
X106333253Y-96651319D01*
X110664713Y-100515748D02*
X110571758Y-100508380D01*
X111233253Y-100501319D02*
X110906134Y-100515866D01*
X112108253Y-99776319D02*
X111685443Y-99776319D01*
X111298470Y-96971558D02*
X111286112Y-97296671D01*
X111286112Y-97296671D02*
X111283253Y-97951319D01*
X112133598Y-95634343D02*
G75*
G03X111571520Y-95685809I-100736J-1994876D01*
G01*
X110508253Y-100120860D02*
X110508253Y-99782068D01*
X110576277Y-96768946D02*
G75*
G03X110546833Y-96951008I1268401J-298546D01*
G01*
X110083253Y-99751319D02*
X110068367Y-99438819D01*
X111323687Y-96773727D02*
G75*
G03X111298470Y-96971558I1647025J-310465D01*
G01*
X112554977Y-95703043D02*
G75*
G03X112517337Y-95682511I-53729J-53729D01*
G01*
X111371599Y-96639665D02*
G75*
G03X111323687Y-96773727I399685J-218434D01*
G01*
X112552016Y-95917333D02*
G75*
G03X112570058Y-95815362I-802959J194647D01*
G01*
X110509034Y-98088819D02*
X110513421Y-97618462D01*
X110068367Y-99438819D02*
X110053481Y-99126319D01*
X110906134Y-100515866D02*
X110778241Y-100518867D01*
X111262633Y-99776319D02*
X111247943Y-100138819D01*
X112426217Y-96351319D02*
X112098720Y-96334181D01*
X108958253Y-99726319D02*
X108958253Y-98179154D01*
X110778241Y-100518867D02*
X110664713Y-100515748D01*
X112108253Y-99453341D02*
X112108253Y-99776319D01*
X106146363Y-102027484D02*
X105886680Y-101993149D01*
X104220725Y-99908430D02*
G75*
G03X104459341Y-99862517I-185207J1605567D01*
G01*
X105783253Y-95701319D02*
X105780943Y-97501319D01*
X103964883Y-99908614D02*
G75*
G03X104220725Y-99908429I127115J1116137D01*
G01*
X102133253Y-95701319D02*
X102495753Y-95686628D01*
X105995854Y-105710847D02*
X105642027Y-105719035D01*
X105008252Y-105666546D02*
G75*
G03X105278387Y-105705181I400537J1836817D01*
G01*
X105048616Y-97486686D02*
X105063979Y-95672053D01*
X102819736Y-100266071D02*
G75*
G03X103131375Y-100402074I1456048J2911356D01*
G01*
X102495753Y-95686628D02*
X102858253Y-95671938D01*
X104818711Y-103305698D02*
G75*
G03X104890644Y-103427582I543650J238678D01*
G01*
X106274346Y-103646618D02*
X106508253Y-103566918D01*
X104890644Y-103427583D02*
G75*
G03X104991414Y-103531936I500899J382869D01*
G01*
X105132895Y-102139222D02*
G75*
G03X104885735Y-102427713I672649J-826403D01*
G01*
X110510825Y-100253226D02*
X110508253Y-100120860D01*
X102858253Y-99522103D02*
X103071868Y-99647290D01*
X110518646Y-100370525D02*
X110510825Y-100253226D01*
X110529642Y-100466747D02*
X110518646Y-100370525D01*
X110529643Y-100466747D02*
G75*
G03X110543634Y-100495033I48824J6547D01*
G01*
X106508253Y-102136101D02*
X106345753Y-102079287D01*
X105036315Y-98689591D02*
X105048616Y-97486686D01*
X105995854Y-105710847D02*
G75*
G03X106217118Y-105674693I-54631J1029493D01*
G01*
X104055126Y-100572924D02*
G75*
G03X104633520Y-100497846I17166J2133248D01*
G01*
X103131375Y-100402074D02*
G75*
G03X103440176Y-100497045I933460J2485641D01*
G01*
X105329795Y-103703698D02*
G75*
G03X105651587Y-103727284I352458J2601756D01*
G01*
X105886680Y-101993149D02*
X105629305Y-101980123D01*
X102107106Y-99740621D02*
X102120179Y-97720970D01*
X105738421Y-99295495D02*
G75*
G03X105772942Y-98793079I-4347055J551080D01*
G01*
X105020064Y-99100484D02*
X105036315Y-98689591D01*
X103320578Y-99761889D02*
G75*
G03X103641269Y-99853579I993383J2867747D01*
G01*
X102319175Y-99936402D02*
X102107106Y-99740621D01*
X104984829Y-99330369D02*
G75*
G03X105020064Y-99100484I-1331151J321674D01*
G01*
X106508253Y-103566918D02*
X106508253Y-102851510D01*
X104764852Y-103151319D02*
G75*
G03X104818712Y-103305699I1014329J267296D01*
G01*
X105994375Y-103709648D02*
G75*
G03X106274346Y-103646618I-153546J1335334D01*
G01*
X103641270Y-99853579D02*
G75*
G03X103964883Y-99908614I661128J2908562D01*
G01*
X106345753Y-102079287D02*
G75*
G03X106146363Y-102027484I-414256J-1184853D01*
G01*
X105440058Y-101996743D02*
G75*
G03X105132895Y-102139223I126736J-675558D01*
G01*
X102858253Y-97597020D02*
X102858253Y-99522103D01*
X102319175Y-99936402D02*
G75*
G03X102537628Y-100105426I1078543J1168271D01*
G01*
X103440176Y-100497045D02*
G75*
G03X104055127Y-100572923I636727J2630472D01*
G01*
X106508253Y-102851510D02*
X106508253Y-102136101D01*
X104633520Y-100497845D02*
G75*
G03X105121020Y-100281302I-463997J1701609D01*
G01*
X105651065Y-99617682D02*
G75*
G03X105738421Y-99295495I-1110560J474047D01*
G01*
X105423616Y-95686686D02*
X105783253Y-95701319D01*
X105642027Y-105719035D02*
X105278387Y-105705181D01*
X104794517Y-99669600D02*
G75*
G03X104912563Y-99512007I-579983J557446D01*
G01*
X104912563Y-99512008D02*
G75*
G03X104984829Y-99330369I-601187J344380D01*
G01*
X102537628Y-100105426D02*
G75*
G03X102819736Y-100266071I1629799J2534054D01*
G01*
X105629305Y-101980123D02*
G75*
G03X105440059Y-101996743I-9964J-972285D01*
G01*
X105651588Y-103727284D02*
G75*
G03X105994375Y-103709649I31794J2722251D01*
G01*
X104885735Y-102427713D02*
G75*
G03X104750855Y-102792154I964937J-564304D01*
G01*
X104646971Y-99784769D02*
G75*
G03X104794518Y-99669601I-327754J571999D01*
G01*
X102120179Y-97720970D02*
X102133253Y-95701319D01*
X104459341Y-99862516D02*
G75*
G03X104646971Y-99784768I-209433J770705D01*
G01*
X102858253Y-95671938D02*
X102858253Y-97597020D01*
X104991415Y-103531936D02*
G75*
G03X105133253Y-103633291I824849J1004388D01*
G01*
X104750856Y-102792154D02*
G75*
G03X104764852Y-103151319I814955J-148097D01*
G01*
X105471387Y-99943169D02*
G75*
G03X105651064Y-99617682I-1516705J1049595D01*
G01*
X105780943Y-97501319D02*
X105772942Y-98793079D01*
X103071868Y-99647290D02*
G75*
G03X103320578Y-99761889I705293J1203490D01*
G01*
X105121020Y-100281303D02*
G75*
G03X105471387Y-99943170I-668310J1043081D01*
G01*
X105063979Y-95672053D02*
X105423616Y-95686686D01*
X105133252Y-103633291D02*
G75*
G03X105329795Y-103703698I263974J427353D01*
G01*
X104238208Y-105362670D02*
X104257649Y-105483876D01*
X104893779Y-104937855D02*
G75*
G03X104871561Y-104946344I-1615J-29091D01*
G01*
X102855399Y-103734802D02*
X102869964Y-104248357D01*
X104919477Y-105645286D02*
X104838852Y-105621964D01*
X104056547Y-103317069D02*
G75*
G03X104093012Y-103448568I761613J140391D01*
G01*
X106482461Y-104368882D02*
G75*
G03X106470839Y-104317621I-58571J13668D01*
G01*
X106297766Y-104761593D02*
G75*
G03X106447367Y-104493069I-635912J530217D01*
G01*
X104257649Y-105483876D02*
X104269848Y-105590243D01*
X106983253Y-101611285D02*
G75*
G03X106024223Y-101349719I-1826991J-4809740D01*
G01*
X106024222Y-101349719D02*
G75*
G03X105242921Y-101368794I-342085J-1998737D01*
G01*
X105748539Y-105002507D02*
G75*
G03X106070403Y-104931111I-27458J884993D01*
G01*
X105656994Y-104415011D02*
G75*
G03X106312800Y-104325014I15192J2323696D01*
G01*
X102846456Y-103022043D02*
X102855399Y-103734802D01*
X104185574Y-105733086D02*
X103842529Y-105719944D01*
X105315089Y-104979216D02*
G75*
G03X105748538Y-105002507I353889J2541046D01*
G01*
X104059093Y-102529088D02*
G75*
G03X104039775Y-102684743I999750J-203105D01*
G01*
X102913512Y-104707655D02*
G75*
G03X103026337Y-104791290I227166J188532D01*
G01*
X107233253Y-103158989D02*
X107233253Y-104611730D01*
X105012310Y-104945537D02*
X105152988Y-104958730D01*
X106983253Y-101611285D02*
X107233253Y-101706248D01*
X103573052Y-104967622D02*
G75*
G03X103848902Y-105014430I541229J2353353D01*
G01*
X107233253Y-101706248D02*
X107233253Y-103158989D01*
X106470839Y-104317621D02*
G75*
G03X106425308Y-104300021I-37897J-30345D01*
G01*
X105242921Y-101368794D02*
G75*
G03X104631693Y-101668748I312911J-1410371D01*
G01*
X102869964Y-104248357D02*
X102887784Y-104641669D01*
X104099728Y-102395114D02*
G75*
G03X104059093Y-102529087I689727J-282351D01*
G01*
X104730109Y-105531534D02*
X104777425Y-105271822D01*
X104269848Y-105590243D02*
X104276090Y-105678344D01*
X106425308Y-104300021D02*
G75*
G03X106312800Y-104325014I149373J-938118D01*
G01*
X103026337Y-104791290D02*
X103280583Y-104886212D01*
X104093013Y-103448568D02*
G75*
G03X104156930Y-103593453I1306953J490034D01*
G01*
X103280584Y-104886212D02*
G75*
G03X103573052Y-104967622I1041602J3175960D01*
G01*
X105029311Y-104309307D02*
G75*
G03X105656994Y-104415012I640720J1888166D01*
G01*
X105008253Y-105666546D02*
X104919477Y-105645286D01*
X104182534Y-105051319D02*
X104238208Y-105362670D01*
X102508253Y-101401319D02*
X102833253Y-101401319D01*
X104038809Y-103160353D02*
G75*
G03X104056548Y-103317069I1133243J48910D01*
G01*
X104871561Y-104946344D02*
G75*
G03X104830817Y-105019961I107677J-107678D01*
G01*
X106070403Y-104931112D02*
G75*
G03X106297765Y-104761593I-240150J559327D01*
G01*
X103848902Y-105014430D02*
X104182534Y-105051319D01*
X104033954Y-102926319D02*
X104039775Y-102684743D01*
X104777425Y-105271822D02*
X104830817Y-105019961D01*
X104747526Y-105583674D02*
G75*
G03X104772932Y-105599414I50902J53790D01*
G01*
X103260555Y-105646444D02*
G75*
G03X103501197Y-105691888I419033J1559037D01*
G01*
X102887784Y-104641669D02*
G75*
G03X102913511Y-104707655I112102J5699D01*
G01*
X102833253Y-101401319D02*
X102846456Y-103022043D01*
X104730108Y-105531534D02*
G75*
G03X104747526Y-105583674I57516J-9766D01*
G01*
X107233253Y-104611730D02*
X107057847Y-104956524D01*
X104156930Y-103593453D02*
G75*
G03X104507801Y-104023731I1175684J600516D01*
G01*
X104893779Y-104937854D02*
X105012310Y-104945537D01*
X104631693Y-101668747D02*
G75*
G03X104174513Y-102234443I1188591J-1428175D01*
G01*
X106217118Y-105674694D02*
G75*
G03X106475372Y-105571974I-346154J1246300D01*
G01*
X104174513Y-102234444D02*
G75*
G03X104099728Y-102395115I1667808J-874027D01*
G01*
X106475372Y-105571974D02*
G75*
G03X106703366Y-105417140I-584599J1106102D01*
G01*
X106703366Y-105417140D02*
G75*
G03X106898108Y-105211049I-864125J1011594D01*
G01*
X106898108Y-105211048D02*
G75*
G03X107057847Y-104956524I-1332520J1013675D01*
G01*
X106447367Y-104493069D02*
G75*
G03X106482462Y-104368882I-1326621J441960D01*
G01*
X104267735Y-105700170D02*
G75*
G03X104276090Y-105678344I-20273J20273D01*
G01*
X105152988Y-104958730D02*
X105315089Y-104979216D01*
X103842529Y-105719944D02*
X103501197Y-105691888D01*
X104038809Y-103160353D02*
X104033954Y-102926319D01*
X104838852Y-105621964D02*
X104772932Y-105599414D01*
X104185574Y-105733086D02*
G75*
G03X104267735Y-105700170I2620J112457D01*
G01*
X104507801Y-104023731D02*
G75*
G03X105029311Y-104309307I1073778J1341931D01*
G01*
X115794908Y-102426798D02*
G75*
G03X115808253Y-102396673I-27329J30125D01*
G01*
X112856954Y-103462009D02*
G75*
G03X112666132Y-103383860I-356470J-598370D01*
G01*
X113113550Y-102384830D02*
X112940462Y-102557335D01*
X114083252Y-104982952D02*
G75*
G03X114259399Y-104887353I-598322J1312527D01*
G01*
X102354383Y-105186406D02*
G75*
G03X102548821Y-105332937I1274819J1489338D01*
G01*
X103003229Y-105563650D02*
G75*
G03X103260556Y-105646443I977778J2597698D01*
G01*
X113111143Y-104844596D02*
G75*
G03X113580788Y-105054539I605863J725051D01*
G01*
X115549244Y-104311086D02*
G75*
G03X115548667Y-104272561I-61097J18352D01*
G01*
X112618355Y-103758860D02*
G75*
G03X112766382Y-104382126I1854111J111143D01*
G01*
X114299167Y-102025790D02*
G75*
G03X114025254Y-102005370I-253191J-1548933D01*
G01*
X115808252Y-102396674D02*
G75*
G03X115799868Y-102364211I-67039J0D01*
G01*
X115068221Y-105147551D02*
G75*
G03X115415977Y-104642085I-1572530J1454246D01*
G01*
X113317817Y-102217935D02*
G75*
G03X113113550Y-102384830I1372479J-1888271D01*
G01*
X115725198Y-102486099D02*
X115633837Y-102553187D01*
X112608288Y-103548765D02*
X112618355Y-103758860D01*
X102183253Y-101401319D02*
X102508253Y-101401319D01*
X112945590Y-102672592D02*
X113314003Y-102900601D01*
X112632022Y-103396498D02*
G75*
G03X112613005Y-103444968I86543J-61919D01*
G01*
X114025254Y-102005371D02*
G75*
G03X113744972Y-102033332I21588J-1635103D01*
G01*
X102548821Y-105332938D02*
G75*
G03X102765512Y-105458948I1213381J1837252D01*
G01*
X114233451Y-103451913D02*
X114731367Y-103747735D01*
X115760518Y-102297596D02*
X115799868Y-102364211D01*
X102765512Y-105458948D02*
G75*
G03X103003229Y-105563650I1071780J2111178D01*
G01*
X112940461Y-102557335D02*
G75*
G03X112922094Y-102642842I63228J-58308D01*
G01*
X115034041Y-102525710D02*
X114851799Y-102344833D01*
X114608252Y-104559081D02*
G75*
G03X114574413Y-104498871I-70483J1D01*
G01*
X115549244Y-104311085D02*
X115517979Y-104405979D01*
X115525515Y-102622068D02*
X115344898Y-102727218D01*
X113314003Y-102900601D02*
X113735786Y-103156913D01*
X115707984Y-102219881D02*
X115760518Y-102297596D01*
X102354382Y-105186406D02*
X102157014Y-105017466D01*
X113735786Y-103156913D02*
X114233451Y-103451913D01*
X113494828Y-105723060D02*
G75*
G03X114057789Y-105715445I259884J1600491D01*
G01*
X114519326Y-102095736D02*
G75*
G03X114299167Y-102025790I-348592J-715758D01*
G01*
X115154032Y-104006625D02*
X115520021Y-104236050D01*
X113744972Y-102033332D02*
G75*
G03X113504759Y-102109132I194211J-1033979D01*
G01*
X112766381Y-104382126D02*
G75*
G03X113111143Y-104844596I1141985J491585D01*
G01*
X113694455Y-103964861D02*
X112856954Y-103462009D01*
X114731367Y-103747735D02*
X115154032Y-104006625D01*
X115645753Y-102138422D02*
X115707984Y-102219881D01*
X114574413Y-104498871D02*
X113694455Y-103964861D01*
X114434170Y-104761791D02*
G75*
G03X114575961Y-104635782I-1259760J1560320D01*
G01*
X114057789Y-105715444D02*
G75*
G03X114599988Y-105517360I-333976J1755259D01*
G01*
X112922093Y-102642842D02*
G75*
G03X112945590Y-102672592I52917J17639D01*
G01*
X113504759Y-102109132D02*
G75*
G03X113317817Y-102217935I441061J-972817D01*
G01*
X114666005Y-102187391D02*
G75*
G03X114519326Y-102095736I-506972J-648127D01*
G01*
X114575962Y-104635782D02*
G75*
G03X114608253Y-104559080I-74950J76702D01*
G01*
X102170133Y-103209392D02*
X102183253Y-101401319D01*
X102157014Y-105017466D02*
X102170133Y-103209392D01*
X112666132Y-103383860D02*
G75*
G03X112632022Y-103396498I-7718J-31521D01*
G01*
X113580789Y-105054538D02*
G75*
G03X114083253Y-104982951I129595J889544D01*
G01*
X112613005Y-103444968D02*
G75*
G03X112608288Y-103548765I634535J-80844D01*
G01*
X114259399Y-104887352D02*
G75*
G03X114434170Y-104761791I-1027996J1615291D01*
G01*
X115174159Y-102696250D02*
G75*
G03X115034041Y-102525710I-1446105J-1045304D01*
G01*
X115794908Y-102426798D02*
X115725198Y-102486099D01*
X115272403Y-102754648D02*
G75*
G03X115344898Y-102727218I-52310J247766D01*
G01*
X114851799Y-102344833D02*
X114666005Y-102187392D01*
X115517979Y-104405979D02*
X115473034Y-104519244D01*
X115223530Y-102744743D02*
G75*
G03X115272403Y-102754647I35892J51579D01*
G01*
X114599988Y-105517360D02*
G75*
G03X115068221Y-105147551I-941775J1673758D01*
G01*
X115633837Y-102553187D02*
X115525515Y-102622068D01*
X115473034Y-104519244D02*
X115415977Y-104642085D01*
X115548666Y-104272560D02*
G75*
G03X115520021Y-104236050I-65358J-21787D01*
G01*
X115174158Y-102696249D02*
G75*
G03X115223530Y-102744743I167242J120889D01*
G01*
M02*
