G04 #@! TF.GenerationSoftware,KiCad,Pcbnew,(5.1.2)-2*
G04 #@! TF.CreationDate,2021-02-16T01:53:12-08:00*
G04 #@! TF.ProjectId,FiveStageStereoEQ,46697665-5374-4616-9765-53746572656f,v01*
G04 #@! TF.SameCoordinates,Original*
G04 #@! TF.FileFunction,Soldermask,Bot*
G04 #@! TF.FilePolarity,Negative*
%FSLAX46Y46*%
G04 Gerber Fmt 4.6, Leading zero omitted, Abs format (unit mm)*
G04 Created by KiCad (PCBNEW (5.1.2)-2) date 2021-02-16 01:53:12*
%MOMM*%
%LPD*%
G04 APERTURE LIST*
%ADD10O,1.409600X2.717600*%
%ADD11O,2.717600X1.409600*%
%ADD12C,1.301600*%
%ADD13C,1.318600*%
%ADD14C,1.625600*%
%ADD15C,2.081600*%
%ADD16R,2.081600X2.081600*%
G04 APERTURE END LIST*
D10*
X176149000Y-93345000D03*
D11*
X171149000Y-88345000D03*
X171149000Y-98345000D03*
D12*
X178649000Y-98345000D03*
X176149000Y-98345000D03*
X171149000Y-93345000D03*
X178649000Y-88345000D03*
X176149000Y-88345000D03*
X88138000Y-99234000D03*
X85638000Y-99234000D03*
X93138000Y-94234000D03*
X88138000Y-89234000D03*
X85638000Y-89234000D03*
D11*
X93138000Y-89234000D03*
X93138000Y-99234000D03*
D10*
X88138000Y-94234000D03*
D13*
X153987500Y-96202500D03*
X153987500Y-93662500D03*
X153987500Y-91122500D03*
X161607500Y-96202500D03*
X161607500Y-91122500D03*
X161607500Y-93662500D03*
X153987500Y-131445000D03*
X153987500Y-128905000D03*
X153987500Y-126365000D03*
X161607500Y-131445000D03*
X161607500Y-126365000D03*
X161607500Y-128905000D03*
X161694500Y-76581000D03*
X161694500Y-74041000D03*
X161694500Y-79121000D03*
X154074500Y-74041000D03*
X154074500Y-76581000D03*
X154074500Y-79121000D03*
X154114500Y-62611000D03*
X154114500Y-60071000D03*
X154114500Y-57531000D03*
X161734500Y-62611000D03*
X161734500Y-57531000D03*
X161734500Y-60071000D03*
D14*
X176530000Y-104775000D03*
X176530000Y-114935000D03*
X176530000Y-109855000D03*
D13*
X161607500Y-110871000D03*
X161607500Y-108331000D03*
X161607500Y-113411000D03*
X153987500Y-108331000D03*
X153987500Y-110871000D03*
X153987500Y-113411000D03*
D15*
X176530000Y-131445000D03*
X176530000Y-128895000D03*
D16*
X176530000Y-126345000D03*
M02*
