M48
; DRILL file {KiCad (5.1.2)-2} date 02/16/21 01:53:17
; FORMAT={-:-/ absolute / inch / decimal}
; #@! TF.CreationDate,2021-02-16T01:53:17-08:00
; #@! TF.GenerationSoftware,Kicad,Pcbnew,(5.1.2)-2
FMAT,2
INCH
T1C0.0150
T2C0.0280
T3C0.0315
T4C0.0400
T5C0.0520
T6C0.0472
%
G90
G05
T1
X3.325Y-2.25
X3.325Y-2.7
X3.325Y-3.1
X3.325Y-4.25
X3.325Y-4.825
X3.325Y-5.25
X3.67Y-5.11
X4.025Y-4.765
X4.055Y-2.145
X4.055Y-2.805
X4.065Y-2.635
X4.121Y-5.026
X4.145Y-2.805
X4.525Y-5.225
X4.565Y-4.355
X4.595Y-4.64
X4.595Y-5.025
X4.608Y-4.015
X4.6111Y-3.1243
X4.691Y-4.86
X4.73Y-2.305
X4.735Y-2.87
X4.735Y-4.355
X4.85Y-2.15
X4.885Y-3.265
X4.895Y-3.38
X4.94Y-2.395
X5.07Y-3.16
X5.21Y-4.655
X5.235Y-2.54
X5.24Y-2.865
X5.28Y-4.94
X5.29Y-3.645
X5.29Y-4.21
X5.2918Y-2.5781
X5.2941Y-2.7541
X5.31Y-4.875
X5.335Y-4.0
X5.425Y-4.095
X5.49Y-5.15
X5.8Y-3.93
X5.945Y-4.73
X5.975Y-2.175
X6.165Y-4.69
X6.5Y-5.225
X6.535Y-3.24
X6.625Y-2.811
X6.644Y-2.461
X6.695Y-2.7563
X6.7316Y-2.9795
X6.835Y-2.745
X6.895Y-2.935
X7.0476Y-3.35
X7.095Y-3.665
X7.1Y-2.295
X7.1Y-3.15
X7.1Y-4.275
X7.1Y-4.775
T2
X6.0625Y-3.5875
X6.0625Y-3.6875
X6.0625Y-3.7875
X6.3625Y-3.5875
X6.3625Y-3.6875
X6.3625Y-3.7875
X6.0625Y-4.265
X6.0625Y-4.365
X6.0625Y-4.465
X6.3625Y-4.265
X6.3625Y-4.365
X6.3625Y-4.465
X6.0675Y-2.265
X6.0675Y-2.365
X6.0675Y-2.465
X6.3675Y-2.265
X6.3675Y-2.365
X6.3675Y-2.465
X6.0625Y-4.975
X6.0625Y-5.075
X6.0625Y-5.175
X6.3625Y-4.975
X6.3625Y-5.075
X6.3625Y-5.175
X6.0659Y-2.915
X6.0659Y-3.015
X6.0659Y-3.115
X6.3659Y-2.915
X6.3659Y-3.015
X6.3659Y-3.115
T4
X6.95Y-4.125
X6.95Y-4.325
X6.95Y-4.525
T5
X6.95Y-4.9742
X6.95Y-5.0746
X6.95Y-5.175
T6
X6.7381Y-3.675
X6.935Y-3.4781
X6.935Y-3.8719
X7.0334Y-3.4781
X7.0334Y-3.8719
X3.3716Y-3.5131
X3.3716Y-3.9069
X3.47Y-3.5131
X3.47Y-3.9069
X3.6669Y-3.71
T3
G00X6.7519Y-3.4781
M15
G01X6.7244Y-3.4781
M16
G05
G00X6.7519Y-3.8719
M15
G01X6.7244Y-3.8719
M16
G05
G00X6.935Y-3.6888
M15
G01X6.935Y-3.6612
M16
G05
G00X3.47Y-3.6962
M15
G01X3.47Y-3.7238
M16
G05
G00X3.6531Y-3.5131
M15
G01X3.6806Y-3.5131
M16
G05
G00X3.6531Y-3.9069
M15
G01X3.6806Y-3.9069
M16
G05
T0
M30
